<svg width="125" height="112" viewBox="0 0 125 112" fill="none" xmlns="http://www.w3.org/2000/svg">
<path d="M58.2786 102.728C84.6821 102.728 106.086 81.3661 106.086 55.0146C106.086 28.663 84.6821 7.30084 58.2786 7.30084C31.8751 7.30084 10.4709 28.663 10.4709 55.0146C10.4709 81.3661 31.8751 102.728 58.2786 102.728Z" fill="url(#paint0_linear_2_4)"/>
<path d="M62.1482 0.0380492C63.4015 0.195002 64.6596 0.342443 65.9082 0.513664C71.8879 1.2751 77.6915 3.05941 83.064 5.78824C97.4591 13.1381 107.054 24.5227 111.848 39.9422C111.886 40.0611 111.905 40.18 111.934 40.3036C111.829 40.8411 112.158 41.2977 112.239 41.7971C112.301 42.1633 112.401 42.5295 112.463 42.8957C112.602 43.635 112.486 44.3994 112.134 45.0645C111.61 46.0491 111.181 47.0812 110.228 47.8041C109.816 48.1834 109.432 48.5919 109.079 49.0264C108.174 49.9776 107.173 50.8195 106.186 51.6756C106.042 51.7782 105.875 51.8458 105.7 51.873C105.524 51.9003 105.345 51.8864 105.176 51.8325C105.113 51.8168 105.058 51.7799 105.019 51.7279C104.852 50.8528 104.814 49.9634 104.69 49.0835C103.647 41.6628 100.822 34.6038 96.4552 28.5084C95.3928 27.0002 94.2238 25.5698 92.9573 24.2278C90.3865 21.3325 87.4372 18.7953 84.1887 16.6846C81.7316 15.0355 79.1149 13.6365 76.378 12.5087C73.6412 11.3758 70.8067 10.4939 67.9097 9.87377C67.6237 9.80719 67.3331 9.8167 67.0471 9.75011C63.9195 9.13017 60.7321 8.86215 57.5447 8.95108C55.0582 8.95623 52.577 9.17904 50.1295 9.61694C46.8708 10.1604 43.6845 11.0715 40.6318 12.3327C37.5069 13.5592 34.5355 15.1441 31.7775 17.0556C28.8547 19.06 26.1563 21.3721 23.7285 23.952C23.6023 24.0882 23.4876 24.2346 23.3854 24.3896C20.7691 27.2568 18.542 30.455 16.7613 33.9019C15.7676 35.7034 14.9245 37.5837 14.2404 39.5236C12.9994 42.876 12.1409 46.3573 11.6813 49.9015C11.4453 51.938 11.3355 53.987 11.3525 56.037C11.3699 58.63 11.6059 61.2169 12.0577 63.7705C12.0816 63.9322 12.1149 64.0939 12.1388 64.2461C12.162 64.3355 12.1667 64.4287 12.1526 64.52C12.1385 64.6113 12.106 64.6988 12.0569 64.7771C12.0079 64.8554 11.9434 64.923 11.8673 64.9756C11.7913 65.0282 11.7053 65.0648 11.6146 65.0832C10.2204 65.563 8.85791 66.1301 7.53527 66.7811C6.59281 67.2166 5.68196 67.7172 4.80939 68.2793C4.05167 68.8025 3.77051 68.6741 3.60371 67.7752C3.33684 66.472 3.05091 65.1355 2.86029 63.7705C2.71256 62.629 2.64584 61.4638 2.48858 60.327C2.19788 58.2581 2.42663 56.1844 2.28366 54.144C2.21218 53.0596 2.50288 52.0038 2.51717 50.9289C2.59669 49.3314 2.79259 47.7418 3.10333 46.1727C3.32731 44.7982 3.64184 43.4332 3.99925 42.0777C4.54051 39.9196 5.20236 37.7934 5.98171 35.7092C7.41032 31.9945 9.23994 28.4461 11.4382 25.1268C12.9769 22.7967 14.6827 20.5808 16.5421 18.4967C20.184 14.421 24.4051 10.9005 29.0707 8.04741C32.226 6.09446 35.5808 4.48254 39.0783 3.23894C40.9845 2.55881 42.924 2.00234 44.8827 1.46489C46.3457 1.07965 47.8278 0.818058 49.3051 0.537445C50.8447 0.209996 52.4154 0.0505217 53.9896 0.06183C54.1278 0.06183 54.285 0.109392 54.4089 0L62.1482 0.0380492Z" fill="#079247"/>
<path d="M50.7825 110.971C45.7974 110.285 40.9266 108.937 36.3 106.961C26.4331 102.743 17.9945 95.7741 11.9959 86.8901C11.7814 86.581 11.6051 86.2528 11.4145 85.9389C11.4764 85.8683 11.5578 85.8175 11.6485 85.793C11.7393 85.7684 11.8352 85.7712 11.9244 85.801C15.3765 86.2273 18.8543 86.4117 22.3323 86.3527C22.4141 86.3568 22.4954 86.368 22.5753 86.386C22.7177 86.4182 22.8512 86.4815 22.9661 86.5715C26.6534 90.7286 31.0341 94.2173 35.914 96.8828C37.1245 97.5344 38.3635 98.1194 39.6121 98.6806C40.1792 98.9375 40.2078 98.8994 40.2936 98.2764C40.8702 94.0624 41.3515 89.839 41.9091 85.625C41.9472 85.3539 41.9853 85.0828 42.2617 84.9354C44.5682 84.5644 46.8843 84.279 49.186 83.9175C49.2773 83.8953 49.3723 83.8932 49.4644 83.9113C49.5566 83.9293 49.6437 83.9672 49.7198 84.0222C49.8972 84.4434 49.9849 84.897 49.9771 85.3539C50.1963 89.1588 50.6109 92.9923 50.9302 96.8067C51.0636 98.3144 51.2161 99.8221 51.3257 101.33C51.3186 101.426 51.3312 101.523 51.3628 101.614C51.3943 101.705 51.4442 101.789 51.5093 101.86C51.5745 101.931 51.6535 101.988 51.7416 102.028C51.8296 102.068 51.9249 102.089 52.0215 102.091C53.6466 102.357 55.2859 102.386 56.9205 102.495C57.1587 102.495 57.397 102.562 57.6353 102.557C57.8736 102.552 58.1118 102.505 58.3406 102.519C59.4537 102.603 60.5727 102.561 61.6765 102.395C61.9415 102.419 62.2087 102.4 62.4675 102.338C63.1482 102.316 63.8251 102.227 64.4881 102.072C64.9552 102.098 65.4226 102.027 65.8606 101.863C66.1513 101.81 66.4467 101.805 66.7374 101.763C69.6377 101.273 72.4746 100.464 75.1962 99.3513C75.3095 99.3014 75.4257 99.2586 75.5441 99.2228C76.6485 98.8649 77.7212 98.4163 78.7513 97.8816C81.5074 96.5371 84.1251 94.9266 86.5668 93.0731C89.0395 91.216 91.3179 89.1142 93.3672 86.7998C95.1651 84.7905 96.7851 82.6295 98.209 80.3409C98.3057 80.253 98.4241 80.1922 98.5521 80.1649C99.1283 80.0913 99.7136 80.1432 100.268 80.3171C102.336 80.9116 104.352 81.6536 106.387 82.3623C106.536 82.4046 106.672 82.4826 106.784 82.5895C106.897 82.6964 106.981 82.829 107.03 82.9758C106.892 83.7796 106.334 84.3789 105.934 85.04C104.635 87.1581 103.189 89.1828 101.607 91.0993C100.954 91.9031 100.258 92.6689 99.5671 93.4394C98.113 95.0319 96.5629 96.5344 94.9255 97.9387C92.9723 99.6366 90.9022 101.196 88.7303 102.604C87.0454 103.711 85.2949 104.715 83.4883 105.61C80.9873 106.862 78.3955 107.924 75.7348 108.787C73.7618 109.415 71.7651 109.915 69.7636 110.419C69.4037 110.516 69.0286 110.545 68.658 110.504L65.6557 110.98C65.4824 111.128 65.2678 111.219 65.0409 111.242C62.3391 111.547 59.6202 111.678 56.9014 111.632C55.305 111.594 53.7133 111.465 52.1359 111.28C51.9262 111.256 51.7165 111.28 51.5116 111.256C51.3755 111.279 51.2357 111.265 51.1072 111.215C50.9787 111.164 50.8664 111.08 50.7825 110.971V110.971Z" fill="#079247"/>
<path d="M112.467 41.7971C115.432 42.3393 118.334 43.086 121.017 44.5176C121.846 44.9499 122.612 45.4958 123.29 46.1394C125.196 47.9753 125.501 50.1251 124.243 52.4699C123.146 54.3835 121.678 56.0601 119.925 57.402C115.26 61.2402 109.961 64.0321 104.585 66.7003C101.006 68.4308 97.3381 69.9707 93.5959 71.3137C93.3724 71.4139 93.1199 71.4291 92.8859 71.3565C88.4587 69.9677 84.0077 68.6646 79.509 67.5516C79.4704 67.5358 79.4349 67.5133 79.4042 67.485C79.4566 67.2044 79.7139 67.1759 79.9093 67.0855C80.9196 66.6099 81.9633 66.2294 82.964 65.7443C83.7599 65.4399 84.5176 65.0499 85.3087 64.7312C85.6199 64.6242 85.9199 64.4872 86.2046 64.3222C88.0488 63.4613 89.8979 62.61 91.7135 61.6873C96.1662 59.487 100.465 56.9891 104.58 54.2106C104.838 54.0346 105.09 53.8539 105.329 53.6541C107.178 52.3795 108.886 50.911 110.423 49.2737C111.101 48.5677 111.659 47.7565 112.077 46.8719C112.615 45.7066 112.439 44.4938 112.434 43.2572C112.434 42.7673 112.181 42.2774 112.467 41.7971Z" fill="#2D286D"/>
<path d="M50.2868 50.7577C50.3297 52.546 50.5156 54.3201 50.7014 56.0894C50.7443 56.4937 50.8349 56.9978 51.4162 57.0406C51.9976 57.0834 52.2788 56.7695 52.4647 56.2654C52.5806 55.9316 52.6433 55.5817 52.6505 55.2285C52.8793 49.5211 52.8364 43.7757 52.6505 38.0493C52.5838 36.1849 52.4694 34.3205 52.3551 32.4561C52.3551 32.0898 52.3551 31.9186 52.7887 31.9376C54.0992 32.009 53.8705 31.638 54.0563 33.0648C54.3518 35.3668 54.9094 37.626 55.2382 39.9232C55.7958 43.828 56.3057 47.7423 56.2342 51.6947C56.1591 55.2242 55.4622 58.7129 54.1755 62.0013C54.0135 62.4198 53.6989 62.3437 53.4273 62.3627C48.1242 61.5854 42.7845 61.0806 37.4294 60.8503C37.195 60.6715 37.0353 60.4122 36.9815 60.1226C36.3653 58.2291 35.95 56.2763 35.7424 54.2963C35.5954 53.5646 35.5141 52.8213 35.4994 52.0752C35.5995 50.4866 35.6995 48.8933 35.8044 47.319C35.9235 45.5593 36.0331 43.7995 36.2142 42.0492C36.5478 38.8626 37.1673 35.7235 37.6772 32.5702C37.7964 31.8282 39.1069 31.4192 39.6549 31.9329C39.7403 32.0248 39.8021 32.1359 39.8353 32.2568C39.8685 32.3777 39.872 32.5048 39.8455 32.6273C39.6216 34.9435 39.6835 37.2693 39.512 39.5855C39.512 39.7092 39.512 39.8329 39.512 39.9565C39.4786 44.0849 39.2785 48.2132 39.4071 52.3225C39.4452 53.659 39.4071 55.0288 39.8837 56.3272C39.9742 56.6934 40.1934 56.936 40.589 56.8789C40.9845 56.8218 41.1227 56.4889 41.1608 56.1036C41.2704 54.9099 41.3229 53.7256 41.4277 52.5128C41.5993 50.4724 41.7136 48.4272 41.8661 46.3868C41.9805 44.8791 42.0853 43.3714 42.1616 41.8637C42.2521 39.9613 42.3856 38.0588 42.4952 36.1563C42.5619 35.0196 42.6715 33.8877 42.6715 32.7462C42.6715 31.9947 42.905 31.795 43.5722 31.7521C44.3728 31.7189 44.654 31.9424 44.6349 32.7509C44.5872 34.953 44.7445 37.1456 44.7922 39.3477C44.8827 43.4523 44.9971 47.5568 45.0495 51.6662C45.0495 52.7601 45.1305 53.8635 45.1496 54.9622C45.1454 55.3576 45.2387 55.7479 45.4212 56.0989C45.486 56.2393 45.5894 56.3584 45.7192 56.4426C45.8491 56.5268 46.0003 56.5725 46.1551 56.5745C46.3128 56.5702 46.4655 56.5177 46.5924 56.4242C46.7194 56.3306 46.8146 56.2005 46.8652 56.0513C46.9965 55.7679 47.0772 55.4636 47.1034 55.1524C47.1297 54.9458 47.1393 54.7375 47.132 54.5294C47.051 51.3951 47.2321 48.2655 47.2845 45.1312C47.3417 41.4832 47.4895 37.8353 47.5133 34.1921C47.5133 33.5928 47.6229 32.9935 47.6562 32.3942C47.6848 31.8758 47.9041 31.7331 48.5093 31.7331C49.1145 31.7331 49.3337 31.8711 49.3718 32.3847C49.4671 33.7925 49.5545 35.1988 49.6339 36.6034C49.7451 38.4678 49.8595 40.3307 49.9771 42.1919C50.0771 43.7852 50.1772 45.3785 50.2487 46.9766C50.2963 48.0087 50.4393 49.0408 50.4155 50.0824C50.3774 50.3297 50.4631 50.5627 50.2868 50.7577Z" fill="#079247"/>
<path d="M22.6325 86.5238C18.8787 86.6152 15.1235 86.4181 11.4001 85.9341C10.6758 85.5821 9.87515 85.4014 9.22703 84.8972C9.15234 84.8741 9.08942 84.8231 9.05128 84.755C9.01314 84.6868 9.0027 84.6066 9.02212 84.531C9.0484 84.0353 9.14302 83.5456 9.30328 83.0756C9.50344 82.3527 9.77984 82.2195 10.5328 82.2671C13.4874 82.4431 16.4516 82.4003 19.4062 82.2671C20.8359 82.1815 22.2226 82.1101 23.6284 81.9912C26.6927 81.7296 29.7331 81.3063 32.7735 80.8402C35.7281 80.3646 38.6589 79.7986 41.5897 79.1946C41.9376 79.1233 42.2759 79.0234 42.6143 78.9235C44.8017 78.4954 46.9652 77.9723 49.1145 77.3778C51.3018 76.9021 53.4368 76.2363 55.5861 75.6322C55.8809 75.5358 56.1867 75.4767 56.4963 75.4563C57.0139 75.4343 57.5229 75.3166 57.9974 75.1091C59.1623 74.7388 60.3638 74.4948 61.5811 74.3814C61.8719 74.3629 62.1638 74.3853 62.4484 74.448C63.1019 74.5698 63.7661 74.6256 64.4309 74.6144C66.0988 74.6144 67.7381 74.8903 69.3918 75.0187C70.6308 75.1138 71.8698 75.2375 73.1041 75.3611C74.4242 75.4848 75.7442 75.6037 77.0643 75.7607C77.1484 75.7596 77.2307 75.7846 77.2999 75.8324C77.369 75.8801 77.4216 75.9481 77.4503 76.027C77.4685 76.1093 77.4598 76.1953 77.4255 76.2723C77.3912 76.3493 77.3331 76.4134 77.2597 76.4551C77.1198 76.5433 76.9903 76.647 76.8736 76.7642C75.6525 77.2326 74.3991 77.6125 73.1232 77.9009C62.9976 80.6953 52.729 82.945 42.3617 84.6404C39.2197 85.1509 36.0681 85.5742 32.9069 85.9103C30.0476 86.2194 27.1883 86.5048 24.2861 86.5666C23.7333 86.5999 23.1757 86.7807 22.6325 86.5238Z" fill="#2D286C"/>
<path d="M76.6354 66.8524L72.2702 65.8155C72.0414 65.5016 72.2368 65.2068 72.3417 64.9309C73.4425 62.0249 74.5195 59.1046 75.6013 56.1938C76.4924 53.8158 77.4027 51.4377 78.2652 49.0263C78.5607 48.2749 78.8434 47.5202 79.1135 46.7624C79.347 46.1251 79.5138 46.0632 80.1142 46.4152C80.6191 46.703 81.0563 47.0954 81.3962 47.5662C81.9543 48.3441 82.3477 49.2273 82.5526 50.1619C82.7574 51.0966 82.7693 52.0631 82.5876 53.0025C82.54 53.5211 82.5917 54.0441 82.7401 54.5435C82.8497 55.0666 83.1928 55.1665 83.6074 54.8146C84.1745 54.3389 84.6606 53.7539 85.2753 53.3211C86.2761 52.6172 87.2625 51.8943 88.5397 51.7373C88.6779 51.7659 88.859 51.7706 88.8638 51.9514C88.8685 52.1321 88.7017 52.1749 88.5778 52.2462C87.9753 52.5054 87.4197 52.8622 86.9337 53.3021C87.7742 52.9907 88.663 52.8297 89.5595 52.8265C90.3363 52.8836 90.5126 53.1784 90.0933 53.7777C88.3253 56.2652 86.8003 58.9049 85.2563 61.535C85.018 61.944 84.7559 62.3483 84.551 62.7764C84.2607 63.3639 83.8511 63.8847 83.3482 64.3056C82.8452 64.7265 82.26 65.0383 81.6297 65.221C80.8386 65.4921 80.0952 65.8631 79.3375 66.1723C78.4225 66.5765 78.2319 66.4671 78.2223 65.4779C78.2223 65.416 78.2223 65.3542 78.2223 65.2924C78.3838 64.6493 78.6189 64.0269 78.9229 63.4375C79.6091 61.6825 80.4478 59.9893 81.1865 58.258C81.2367 58.1136 81.3022 57.9748 81.3819 57.8442C80.9339 58.7574 80.4907 59.8038 80.0189 60.8311C79.1754 62.6812 78.27 64.4981 77.4455 66.3577C77.2883 66.781 77.0738 67.0093 76.6354 66.8524Z" fill="#D92927"/>
<path d="M112.467 41.7969C112.515 42.6245 112.529 43.452 112.62 44.2701C112.699 45.023 112.623 45.7841 112.396 46.5064C112.169 47.2287 111.796 47.8969 111.3 48.4698C109.615 50.5468 107.607 52.3405 105.352 53.7824C104.833 53.1498 104.981 52.4697 105.229 51.7896C106.077 51.8324 106.525 51.176 107.092 50.7242C108.36 49.7207 109.355 48.4365 110.547 47.3473C111.195 46.7623 111.552 45.9205 111.977 45.1119C112.71 43.7184 112.201 42.3439 111.929 40.9646C111.886 40.741 111.791 40.5318 111.929 40.3177C112.028 40.8363 112.21 41.3357 112.467 41.7969V41.7969Z" fill="#117E42"/>
<path d="M78.37 65.2971C78.37 66.6907 78.5273 66.4719 79.4899 65.9677C80.6432 65.3684 81.9346 65.0973 83.045 64.3792C83.9409 63.7989 84.3174 62.8715 84.8178 62.0344C85.9424 60.1319 86.9956 58.2295 88.2013 56.3603C88.8018 55.4471 89.426 54.5482 90.0313 53.635C90.3363 53.1594 90.2552 53.0453 89.6977 53.0024C88.8501 52.9615 88.0032 53.0959 87.2101 53.3972C87.0147 53.4638 86.8336 53.5827 86.6382 53.3972C87.0799 53.0157 87.6369 52.793 88.2204 52.7646C88.879 52.6719 89.5466 52.6624 90.2076 52.7361C90.789 52.7837 90.8986 53.0357 90.5507 53.5066C88.5618 56.3397 86.726 59.2768 85.0513 62.3055C84.4794 63.29 83.9743 64.3126 83.3977 65.2923C83.2923 65.495 83.1574 65.6809 82.9974 65.8441C81.8584 66.5194 80.5765 66.8761 79.4041 67.4754L77.6314 67.0997C77.5864 66.761 77.6309 66.4165 77.7604 66.1003C77.89 65.7841 78.1002 65.5072 78.37 65.2971V65.2971Z" fill="#BD2A28"/>
<path d="M0.220245 77.4253V76.9497C0.420397 76.9497 0.458522 77.0924 0.510942 77.2161C1.46405 79.4182 3.15581 80.9496 5.04772 82.3051C6.05251 83.0052 7.098 83.6453 8.17867 84.2219C8.48575 84.3551 8.80491 84.4586 9.13177 84.531C9.14548 84.5906 9.13701 84.6532 9.10795 84.707L9.24615 84.8925C9.10795 84.8925 8.93639 84.8925 8.87444 85.0494C8.66475 85.6392 8.29781 85.5583 7.84032 85.3348C5.82775 84.3583 4.01715 83.0127 2.50293 81.3682C1.59272 80.3836 1.0971 79.1042 0.482349 77.92C0.39657 77.7487 0.306025 77.5918 0.220245 77.4253Z" fill="#D7D5CC"/>
<path d="M71.0073 65.554C71.0931 64.8121 71.4839 64.189 71.7603 63.5041C71.8079 63.371 71.8508 63.233 71.8937 63.0999C71.9116 62.8732 71.9629 62.6504 72.0462 62.4388C73.4377 59.2093 74.834 55.9847 76.2637 52.7743C76.359 52.5507 76.4114 52.2321 76.7784 52.2558C76.9738 52.6221 76.7784 52.9455 76.6354 53.2641C75.4631 56.3033 74.3289 59.3568 73.1613 62.3959C72.8182 63.2853 72.5085 64.189 72.1368 65.0689C72.0414 65.2972 71.9795 65.5445 71.7364 65.6777C71.4934 65.8109 71.2694 65.554 71.0073 65.554Z" fill="#C43828"/>
<path d="M71.746 65.673L76.6164 52.86C76.7277 52.6356 76.7818 52.3873 76.7736 52.137C76.7054 52.079 76.6631 51.9963 76.656 51.9071C76.6488 51.8179 76.6774 51.7296 76.7355 51.6614C77.261 50.9191 77.7037 50.1217 78.0555 49.2833C78.1127 49.1454 78.1795 48.9504 78.413 49.0455C77.6695 51.0621 76.9404 53.0883 76.1875 55.1049C74.9437 58.4627 73.6808 61.8205 72.4322 65.1736C72.322 65.3764 72.2661 65.6041 72.2702 65.8347L71.746 65.673Z" fill="#F5D0A1"/>
<path d="M78.37 65.2973C78.0391 65.86 77.7904 66.467 77.6314 67.0998C77.3359 66.8668 76.9308 67.1284 76.6354 66.8763C76.9928 66.9429 77.1119 66.7336 77.2644 66.4435C78.6321 63.5375 80.0141 60.6362 81.4914 57.773C81.3723 58.0726 81.2627 58.3723 81.1388 58.6672C80.2143 60.874 79.2914 63.0841 78.37 65.2973Z" fill="#FBDFDB"/>
<path d="M61.7527 102.495C60.6076 102.768 59.4184 102.802 58.2596 102.595C58.0975 102.267 58.2881 101.986 58.3978 101.705C60.7281 95.7841 62.9584 89.8151 65.2315 83.8794C65.5413 83.0661 65.8463 82.2481 66.156 81.4348C66.2251 81.1468 66.3939 80.8924 66.6326 80.7166C67.9812 80.2933 69.3728 80.0365 70.75 79.7654C71.2266 79.6655 71.3219 79.8462 71.1312 80.3551C70.7023 81.4823 70.1781 82.5667 69.7016 83.6844C67.0805 89.7089 64.5707 95.7888 62.1721 101.924C62.1064 102.159 61.9573 102.362 61.7527 102.495V102.495Z" fill="#D92927"/>
<path d="M61.7527 102.495C64.612 95.1326 67.6571 87.8557 70.8071 80.6168C70.9168 80.3743 71.0168 80.1412 71.155 79.7988L66.604 80.7928C66.3371 81.0639 65.9654 81.0497 65.6508 81.1448C65.3363 81.2399 64.936 81.4492 64.5405 81.3112C63.5159 81.3112 62.5628 81.6965 61.5716 81.8772C58.574 82.4289 55.5861 83.0472 52.5743 83.5324C51.6211 83.6893 50.6252 83.8701 49.653 84.0413C47.7468 84.3029 45.8835 84.574 43.9963 84.8308C43.4006 84.9164 42.8002 84.9735 42.2045 85.0448C41.0131 85.3112 39.7884 85.354 38.5827 85.5204C37.1101 85.7107 35.6281 85.8581 34.1507 85.9961C33.1023 86.1007 32.0491 86.1816 31.0007 86.2672C29.1042 86.367 27.2171 86.6007 25.3536 86.9663C24.9449 87.0807 24.5177 87.1131 24.0964 87.0616C23.6752 87.0102 23.2683 86.876 22.8993 86.6667C22.7897 86.6667 22.6801 86.6334 22.6277 86.5145C24.7007 86.3861 26.7785 86.2909 28.8515 86.1245C32.6067 85.8296 36.3381 85.354 40.0695 84.807C44.6254 84.1459 49.1526 83.3326 53.6608 82.4004C61.0235 80.8737 68.3291 79.1091 75.5822 77.0497C75.9873 76.9356 76.3876 76.8024 76.7879 76.674C77.4382 76.3 78.1647 76.0773 78.9133 76.0224C79.6022 76.28 80.3186 76.4572 81.0483 76.5503C81.339 76.5503 81.6582 76.712 81.5248 77.1449L81.2865 77.1877L79.2612 77.806C78.8799 78.1484 78.37 78.1579 77.9173 78.3054C77.3454 78.4147 76.7879 78.5812 76.2208 78.7049C75.1342 78.995 74.0525 79.2756 72.9612 79.5324C72.7773 79.569 72.6057 79.6514 72.4624 79.772C72.3191 79.8926 72.2087 80.0474 72.1415 80.2221C70.8214 83.3326 69.4776 86.4051 68.1385 89.5346C66.3466 93.682 64.5643 97.8341 62.7486 101.972C62.6947 102.153 62.5804 102.311 62.4246 102.419C62.3401 102.51 62.226 102.567 62.1027 102.581C61.9795 102.595 61.8553 102.565 61.7527 102.495V102.495Z" fill="#FEFDFD"/>
<path d="M62.396 102.429C63.4587 99.9506 64.5119 97.4726 65.5794 94.9994C67.7175 90.0308 69.854 85.0606 71.989 80.0889C72.0542 79.9082 72.167 79.7485 72.3154 79.6263C72.4638 79.5041 72.6424 79.4241 72.8325 79.3945C73.9238 79.1472 75.0056 78.8475 76.0921 78.5717C76.359 78.8998 76.0635 79.1472 75.9444 79.3897C74.1176 83.0456 72.2892 86.692 70.4593 90.3289C68.5864 94.0339 66.8041 97.777 64.9789 101.506C64.855 101.763 64.7692 102.053 64.5024 102.195C63.8242 102.419 63.1067 102.498 62.396 102.429Z" fill="#D92927"/>
<path d="M64.4785 102.219C68.1861 94.5493 71.9667 86.9141 75.8205 79.3137C75.9833 79.0991 76.0779 78.8406 76.0921 78.5718C76.6662 78.4083 77.2504 78.2828 77.841 78.196C77.9697 78.4243 77.8124 78.5908 77.7171 78.7668C74.5401 84.6929 71.4568 90.6746 68.4673 96.7117C67.7 98.2765 66.9709 99.8603 66.2179 101.435C66.1226 101.63 66.0797 101.877 65.8272 101.967C65.4269 102.295 64.9455 102.224 64.4785 102.219Z" fill="#D7E3AB"/>
<path d="M65.8272 101.967C67.6333 97.9672 69.6062 94.0482 71.5839 90.1291C73.6093 86.1197 75.7347 82.1626 77.8411 78.1959C78.2883 78.015 78.7554 77.8873 79.2326 77.8154L74.0191 87.8699L66.7565 101.896C66.4578 101.998 66.138 102.022 65.8272 101.967V101.967Z" fill="#D32C27"/>
<path d="M64.5453 81.3207C64.9054 81.1811 65.2791 81.0791 65.6604 81.0163C66.1369 80.9783 65.9606 81.3017 65.8987 81.4919C65.6652 82.2434 65.3459 82.9664 65.0647 83.7036C62.7518 89.7978 60.4358 95.8888 58.1166 101.977C58.0213 102.229 58.007 102.566 57.64 102.652C57.4454 102.7 57.2402 102.68 57.0586 102.595C58.2166 98.7187 59.5701 94.909 60.933 91.1041C62.0338 88.0221 63.2109 84.9639 64.3499 81.8962C64.4261 81.7155 64.4785 81.5157 64.5453 81.3207Z" fill="#D22D27"/>
<path d="M98.2613 80.417C96.6506 79.9081 95.0303 79.423 93.3862 79.033C92.3616 78.7952 91.3561 78.448 90.322 78.2672C88.4158 77.9343 86.5477 77.3826 84.6033 77.1448C84.189 77.1031 83.7969 76.9373 83.4787 76.6692C83.5692 76.2411 84.041 76.4171 84.2984 76.127C83.5931 76.1032 82.9688 75.8463 82.2968 75.8226C81.9299 75.8226 81.5439 75.7893 81.3437 75.404C81.3415 75.3706 81.3494 75.3373 81.3664 75.3085C81.3834 75.2796 81.4087 75.2566 81.439 75.2423C82.7973 75.309 84.1443 75.5227 85.4564 75.8796C86.3637 76.1642 87.2953 76.3648 88.2394 76.4789C89.3307 76.6977 90.4125 76.9545 91.5086 77.1353C92.8763 77.3731 94.2059 77.7536 95.564 78.0247C96.6315 78.2387 97.6799 78.5526 98.7331 78.8522C98.8543 78.8829 98.9606 78.9553 99.0333 79.0568C99.1668 79.6085 98.8141 79.9366 98.4662 80.2648L98.2613 80.417Z" fill="#A2B977"/>
<path d="M57.6639 102.666C58.5884 100.288 59.5177 97.8818 60.4326 95.4847C62.1959 90.8617 63.9432 86.2355 65.6747 81.6062C65.7367 81.4493 66.0845 81.1972 65.6747 81.0165C65.9749 80.831 66.3371 80.9499 66.6278 80.8024C66.0274 82.0105 65.6318 83.2994 65.1505 84.5503C62.9012 90.3877 60.6614 96.225 58.4311 102.062C58.3644 102.238 58.3167 102.419 58.2596 102.595C58.1741 102.656 58.0748 102.694 57.9708 102.706C57.8668 102.719 57.7613 102.705 57.6639 102.666V102.666Z" fill="#F2DBB2"/>
<path d="M98.4615 80.2743C98.6426 79.908 98.8189 79.5371 98.9953 79.1708C99.0381 79.0519 99.0191 78.8997 99.1763 78.8379C99.3538 78.7763 99.5469 78.7763 99.7244 78.8379C102.107 79.5038 104.49 80.1886 106.806 81.0352C107.173 81.1684 107.649 81.1874 107.802 81.6773C107.684 82.1389 107.428 82.5536 107.068 82.8664L106.958 83.0186C106.792 82.8426 106.701 82.6048 106.429 82.5144C104.266 81.8105 102.141 80.9877 99.9436 80.3836C99.4531 80.3095 98.9576 80.2729 98.4615 80.2743V80.2743Z" fill="#18743B"/>
<path d="M85.3801 64.7883C86.4857 62.6766 87.7629 60.6552 88.959 58.6053C89.2134 58.1379 89.5221 57.7021 89.8788 57.3069C88.9066 59.2379 87.9376 61.1689 86.9718 63.0999L86.257 64.4078C86.0171 64.6313 85.7075 64.7657 85.3801 64.7883V64.7883Z" fill="#A84127"/>
<path d="M49.1717 77.5205C47.0428 78.1726 44.875 78.6905 42.681 79.071C42.2902 78.5193 42.6143 77.9629 42.681 77.4064C42.7993 76.2998 42.7993 75.1837 42.681 74.0771C42.6203 73.8142 42.6318 73.5397 42.7144 73.2828C42.7901 73.1835 42.8909 73.1061 43.0064 73.0584C43.122 73.0108 43.2482 72.9947 43.372 73.0117C45.0447 72.9641 46.7079 72.8119 48.3901 72.8785C48.637 72.864 48.8841 72.903 49.1145 72.9927C49.2162 73.0634 49.2863 73.1709 49.3099 73.2923C49.3546 73.6073 49.3658 73.9262 49.3432 74.2435C49.3766 75.1092 49.3432 75.9748 49.3432 76.8404C49.362 76.9595 49.3565 77.0811 49.327 77.198C49.2976 77.3148 49.2447 77.4246 49.1717 77.5205V77.5205Z" fill="#0A8C45"/>
<path d="M42.8002 77.4112C42.7034 77.959 42.6634 78.5152 42.681 79.0711C41.5215 79.4465 40.3322 79.7233 39.126 79.8987C34.2903 80.8972 29.4052 81.6402 24.491 82.1246C22.8225 82.3393 21.1409 82.4378 19.4587 82.4195C19.1394 82.3338 19.0488 82.0532 18.9297 81.7916C18.9297 81.6585 18.8677 81.5253 19.0536 81.473C19.8756 81.7091 20.7516 81.6792 21.5555 81.3874C21.7515 81.3145 21.9569 81.2696 22.1655 81.2542C24.7868 81.0273 27.3909 80.6333 29.9619 80.0747C33.1548 79.4136 36.3334 78.7192 39.4929 77.9106C40.2602 77.7156 40.9845 77.3875 41.7518 77.2162C42.2283 77.1164 42.357 76.5932 42.8288 76.5646C42.8887 76.8449 42.8788 77.1356 42.8002 77.4112V77.4112Z" fill="#D8DDCD"/>
<path d="M81.3914 75.366L81.2866 75.4421C80.5353 75.8476 79.7075 76.0922 78.8561 76.1602L76.7736 76.6882C76.7891 76.6493 76.8066 76.6111 76.826 76.574C76.9404 76.3457 77.4598 76.4076 77.3026 76.0556C77.1882 75.7893 76.826 75.9557 76.5591 75.9319C74.2622 75.7512 71.9747 75.4563 69.6777 75.2708C67.5809 75.1044 65.4936 74.7952 63.3825 74.7952C62.5485 74.7952 61.7431 74.5336 60.871 74.6573C59.8846 74.8 58.9648 75.0949 57.9879 75.3089C57.4637 75.423 56.9871 75.8416 56.3962 75.6085C56.6202 75.2566 57.03 75.2708 57.3493 75.1329C57.864 74.9236 58.412 74.8285 58.9362 74.6573C60.08 74.3481 61.1903 73.9486 62.3102 73.5634C62.833 73.4213 63.3752 73.3635 63.9162 73.3922C66.2227 73.4968 68.5197 73.7013 70.8167 73.9106C74.0239 74.2055 77.2216 74.5717 80.4145 75.0283C80.7719 75.0616 81.1579 75.0283 81.3914 75.366Z" fill="#272156"/>
<path d="M55.6528 75.7844C55.4622 75.6417 55.1762 75.6797 55.1095 75.3088C55.0714 75.0044 54.6759 74.9616 54.4185 74.8331C53.194 74.3232 51.8683 74.1018 50.5441 74.1863H49.1717V73.3159C49.3909 73.1067 49.6482 73.1495 49.9342 73.14C51.2828 73.0924 52.6219 73.197 53.9658 73.2589C54.6711 73.2922 55.3954 73.2589 56.0769 73.2874C57.0703 73.5338 58.0103 73.9593 58.8504 74.543C58.8976 74.5633 58.9383 74.5963 58.9677 74.6383C58.9972 74.6803 59.0143 74.7296 59.0172 74.7808L56.401 75.6036L55.6528 75.7844Z" fill="#B6C19D"/>
<path d="M19.0631 81.7963L19.4777 82.4194C19.2977 82.5281 19.084 82.567 18.8772 82.5288H11.1428C11.019 82.536 10.8949 82.536 10.7711 82.5288C9.64639 82.4051 9.64639 82.4051 9.39859 83.48C9.29851 83.9033 9.2032 84.3219 9.10789 84.7451L9.065 84.5597C9.0019 84.4638 8.96177 84.3547 8.94772 84.2409C8.93367 84.1271 8.94608 84.0116 8.98399 83.9033C9.18194 82.9518 9.45278 82.0168 9.79412 81.1067C10.128 80.3217 10.6721 79.6438 11.3667 79.1471C12.7085 78.1709 14.2006 77.4191 15.7844 76.9213C15.8711 76.8848 15.9643 76.866 16.0584 76.866C16.1525 76.866 16.2457 76.8848 16.3324 76.9213C16.6472 77.2579 16.8459 77.6862 16.8995 78.1436C16.8953 78.1768 16.8819 78.2081 16.8609 78.2341C16.8398 78.2602 16.812 78.2799 16.7804 78.291C15.3889 78.291 14.2404 79.0235 13.0633 79.637C12.6582 79.8463 12.2913 80.1126 11.8862 80.3409C11.6488 80.4725 11.4475 80.6603 11.3 80.8879C10.7425 81.7488 10.8854 82.0865 11.8814 82.1958C13.9163 82.4099 15.9559 82.2529 17.9908 82.2862C18.4007 82.2386 18.6818 81.92 19.0631 81.7963Z" fill="#1A733B"/>
<path d="M103.227 69.7348C106.539 68.1843 109.746 66.4388 112.896 64.5839C113.073 64.4793 113.225 64.3175 113.459 64.3556C112.811 68.4066 111.726 72.3758 110.223 76.1937C110.032 76.6693 109.813 77.1449 109.627 77.6205C109.537 77.8631 109.446 77.9439 109.184 77.7965C106.718 76.5049 104.171 75.3738 101.559 74.4101C101.508 74.2979 101.484 74.175 101.49 74.0517C101.496 73.9285 101.531 73.8084 101.592 73.7014C102.04 72.6408 102.422 71.5564 102.765 70.4577C102.863 70.1854 103.021 69.9385 103.227 69.7348V69.7348Z" fill="#079247"/>
<path d="M92.7143 38.4391C92.1639 38.3842 91.6473 38.1492 91.2448 37.7707C90.8422 37.3922 90.5764 36.8914 90.4888 36.3464C90.4602 36.2038 90.4887 36.0516 90.3791 35.9374V35.1194C87.7867 37.0741 85.5088 39.2525 83.0402 41.2167C83.1641 41.0788 83.288 40.9361 83.4215 40.803L90.4697 33.6212C90.6603 33.4309 90.8223 33.2169 90.9987 33.0171L94.6157 29.2122H94.7491C93.3195 35.6235 93.1003 42.1775 92.4617 48.8504C92.2266 48.1979 92.1135 47.5079 92.1281 46.8147C92.1415 44.2029 92.3198 41.5946 92.6618 39.0051C92.6857 38.8196 92.7 38.6341 92.719 38.4534C92.9525 38.344 92.9573 38.5343 92.9764 38.6627C93.0026 38.8759 93.0026 39.0915 92.9764 39.3048C93.1896 36.3105 93.5571 33.3293 94.0772 30.3727C92.171 32.337 90.3553 34.3251 88.4015 36.2085C88.878 35.8851 89.2831 35.5236 89.7263 35.1812C89.8182 35.0808 89.9385 35.0106 90.0713 34.9801C90.204 34.9495 90.343 34.9599 90.4697 35.01C90.5797 35.0711 90.6681 35.1647 90.7227 35.278C90.7773 35.3912 90.7955 35.5186 90.7747 35.6425C90.7479 36.1617 90.8923 36.6753 91.1858 37.1048C91.4792 37.5343 91.9057 37.856 92.3997 38.0206C92.5522 38.0872 92.8334 38.1348 92.7143 38.4391Z" fill="#BB4128"/>
<path d="M78.8561 76.1604C79.6476 75.8621 80.4599 75.6221 81.2866 75.4422C82.2019 75.6579 83.1298 75.8168 84.0649 75.9178C84.2793 75.9559 84.6319 75.8465 84.6605 76.0938C84.6891 76.3411 84.3031 76.3078 84.1125 76.4315C83.9219 76.5551 83.6598 76.4743 83.493 76.6645C83.2385 76.654 82.9852 76.7046 82.7543 76.812L81.4962 77.1402C81.4962 77.014 81.446 76.893 81.3567 76.8038C81.2673 76.7146 81.1461 76.6645 81.0197 76.6645C80.2238 76.7549 79.5567 76.4029 78.8561 76.1604Z" fill="#D5D5D1"/>
<path d="M85.3849 76.0366C86.9611 76.1928 88.5257 76.4485 90.0694 76.8023C92.9955 77.354 95.8961 78.0151 98.7713 78.7856C98.8904 78.8189 99.0238 78.8094 99.0953 78.9378C99.1018 78.9842 99.0938 79.0314 99.0725 79.0731C99.0512 79.1147 99.0176 79.1489 98.9762 79.1709C98.1809 78.854 97.3576 78.6119 96.5172 78.4479C95.2543 78.1007 93.9676 77.8391 92.7048 77.5633C91.6421 77.335 90.5603 77.1875 89.5071 76.9164C88.1632 76.5693 86.7336 76.5264 85.3849 76.0366Z" fill="#9EAA41"/>
<path d="M16.3468 76.9449C18.9311 76.1102 21.5758 75.4741 24.2575 75.0425C27.7316 74.4384 31.2295 74.0389 34.7417 73.7821C37.0196 73.6109 39.2928 73.4206 41.5754 73.3968C41.9662 73.3968 42.357 73.354 42.7525 73.3303C42.9566 74.6755 42.9726 76.0424 42.8002 77.392L42.7716 76.5407C42.5524 76.2696 42.6239 75.9461 42.6143 75.6418C42.6143 75.2422 42.3999 75.071 42.0139 75.1376C41.0456 75.2612 40.0656 75.2612 39.0974 75.1376C38.6177 75.0805 38.1313 75.121 37.6677 75.2565C37.3688 75.3488 37.0549 75.3827 36.7432 75.3564C35.2738 75.2681 33.7992 75.3207 32.3399 75.5133C30.0333 75.7892 27.7078 75.813 25.4108 76.1316C22.8008 76.4893 20.216 77.0103 17.6716 77.6917C17.3618 77.7725 17.1092 77.958 16.809 78.0436C16.6108 77.6975 16.4556 77.3285 16.3468 76.9449V76.9449Z" fill="#C7CCBA"/>
<path d="M49.1431 73.0973C52.1787 73.0164 55.2048 73.1496 58.2357 73.2875C59.856 73.3636 61.4762 73.3874 63.0918 73.4397C63.3539 73.4397 63.635 73.3541 63.8733 73.5491C63.3424 73.5521 62.8129 73.6031 62.2912 73.7013C61.6316 73.8769 60.9409 73.9013 60.2706 73.7726C59.1554 73.5443 58.0069 73.706 56.8823 73.5681C56.6772 73.5559 56.475 73.5142 56.2818 73.4445L49.1812 73.316C49.1669 73.2447 49.1574 73.1734 49.1431 73.0973Z" fill="#ADB162"/>
<path d="M16.8376 78.1722L17.1807 78.5812C17.7162 79.2016 18.1373 79.9117 18.4245 80.6787C18.5638 80.991 18.7485 81.281 18.9726 81.5396L19.044 81.7964C18.9498 82.003 18.7914 82.1738 18.5922 82.2835C18.3931 82.3931 18.1638 82.4358 17.9384 82.4052C16.1085 82.4052 14.2833 82.4052 12.4581 82.4052C12.0292 82.4052 11.6051 82.2815 11.1666 82.272C11.1048 82.2779 11.0424 82.2691 10.9846 82.2464C10.9268 82.2237 10.8751 82.1878 10.8338 82.1415C10.7925 82.0951 10.7627 82.0398 10.7468 81.9798C10.731 81.9199 10.7295 81.857 10.7425 81.7964C10.895 81.2399 11.0046 80.6264 11.5479 80.303C12.8183 79.4487 14.1901 78.7553 15.6319 78.2388C16.0109 78.0652 16.4417 78.0414 16.8376 78.1722Z" fill="#0A8C45"/>
<path d="M56.2818 73.4443C58.2929 73.3112 60.2849 73.6441 62.2912 73.7012C61.2251 74.1243 60.1351 74.4848 59.0268 74.7808C58.0975 74.3575 57.2778 73.7202 56.2818 73.4443Z" fill="#9DA786"/>
<path d="M92.7143 38.4392C92.6237 38.2204 92.3998 38.1681 92.2139 38.1063C91.0892 37.7258 90.6842 36.8649 90.6174 35.771C90.6174 35.5285 90.7032 35.2383 90.4173 35.1004C90.1314 34.9625 89.9407 35.2098 89.7215 35.3858C89.2783 35.7567 88.8256 36.1182 88.3777 36.4797C88.2871 36.5558 88.1918 36.708 88.0679 36.5938C87.944 36.4797 88.0679 36.3275 88.1537 36.2229C88.2394 36.1182 88.3586 36.0136 88.4587 35.9089C90.009 34.3236 91.5578 32.7382 93.1051 31.1528C93.4196 30.8246 93.7103 30.4727 94.0153 30.135C94.082 30.0589 94.1678 29.9685 94.2821 30.0351C94.3224 30.0682 94.3504 30.1139 94.3616 30.1647C94.3728 30.2156 94.3667 30.2688 94.3441 30.3157C94.0894 31.3067 93.9047 32.3143 93.7913 33.3311C93.6579 34.4536 93.4863 35.576 93.3719 36.7032C93.2814 37.6545 93.024 38.5676 93.1289 39.6187C92.6523 39.2668 93.1289 38.7103 92.719 38.4345L92.7143 38.4392Z" fill="#D72A27"/>
<path d="M92.3807 45.4402C92.3807 44.7506 92.3283 44.0562 92.3807 43.3713C92.4569 42.5342 92.6047 41.6971 92.6094 40.8505C92.6094 40.646 92.6094 40.3749 92.8811 40.4082C93.0669 40.4415 92.9144 40.684 92.8811 40.8362C92.8191 41.6591 92.7715 42.4819 92.7047 43.2999C92.6173 44.0116 92.5727 44.7279 92.5713 45.445L92.3807 45.4402Z" fill="#D72A27"/>
<path d="M3.72769 68.2746L4.20424 70.139L58.2072 67.4803L107.811 78.7999L109.279 78.2625L109.537 77.8154L109.127 77.7631C109.127 77.7631 104.628 75.385 101.583 74.4338C98.5378 73.4825 96.1741 72.2983 90.4983 70.6288C84.8226 68.9594 77.2645 66.7669 71.0264 65.5636C64.7883 64.3602 54.0516 62.3817 50.5347 61.9774C47.0177 61.5731 39.7265 60.8026 37.4247 60.8645C35.123 60.9263 18.7772 62.7241 11.3287 65.2401C3.88019 67.7561 3.72769 68.2746 3.72769 68.2746Z" fill="white"/>
<path d="M16.3468 76.9451C16.3075 76.9363 16.2668 76.9363 16.2276 76.9451C14.0736 77.6157 12.0149 78.4623 10.4756 80.1983C9.64166 81.1495 9.55588 82.3814 9.208 83.5276C9.12699 83.8669 9.07282 84.212 9.04597 84.5597C8.97541 84.6221 8.88603 84.6592 8.79197 84.6652C8.69791 84.6713 8.60451 84.6458 8.52653 84.593C5.66722 83.0473 2.90321 81.3493 1.04466 78.5479C0.711071 78.0438 0.510919 77.4873 0.229753 76.9641C-0.566089 74.158 0.777789 72.0796 3.14625 70.3388C5.91026 68.3079 9.08886 67.1427 12.3199 66.1058C15.4699 65.1023 18.6866 64.3794 21.9177 63.6945C25.3127 62.969 28.7687 62.5645 32.2398 62.4864C36.9589 62.4126 41.6784 62.6127 46.3743 63.0857C50.5727 63.4804 54.7569 64.0131 58.9219 64.66C62.8821 65.2783 66.828 66.0012 70.7547 66.7955C74.9913 67.6516 79.204 68.5933 83.3881 69.6492C87.3864 70.667 91.3609 71.7752 95.302 73.0165C99.7286 74.3718 104.077 75.9707 108.326 77.806C109.02 78.0877 109.655 78.4957 110.199 79.0093C111.128 79.9605 111.205 80.7595 110.466 81.8297C109.861 82.5241 109.665 82.5907 108.822 82.3053C108.445 82.1674 108.016 82.1293 107.745 81.7869C107.745 81.5633 107.545 81.5396 107.402 81.4872C104.785 80.536 102.107 79.7417 99.4194 78.9855C99.3181 78.9736 99.2157 78.9736 99.1144 78.9855C98.4351 78.9124 97.7666 78.7608 97.1224 78.5337C95.85 78.1674 94.5538 77.9154 93.2718 77.6157C91.3656 77.1687 89.4308 76.8119 87.5056 76.4505C86.8003 76.3173 86.0759 76.2079 85.3849 76.0842C84.3031 75.7275 83.1594 75.7133 82.049 75.4897C81.8282 75.4523 81.6055 75.4269 81.3819 75.4136C78.1842 74.9 74.9675 74.529 71.746 74.2389C69.1202 74.0011 66.5039 73.8108 63.8638 73.5968C63.6878 73.5282 63.4954 73.5133 63.311 73.554C61.9032 73.6531 60.4897 73.6404 59.084 73.5159C55.8863 73.397 52.6934 73.2306 49.4957 73.2353C49.3693 73.2364 49.2446 73.2053 49.1336 73.1449C47.1273 73.0451 45.1258 73.1973 43.1195 73.2258C43.0475 73.2216 42.9756 73.235 42.91 73.2649C42.8444 73.2947 42.7871 73.3401 42.743 73.397C42.3604 73.6113 41.922 73.7057 41.4849 73.6681C37.2539 73.7686 33.0308 74.0861 28.8324 74.6194C24.8005 75.0594 20.8143 75.8471 16.9186 76.9736C16.8267 77.0097 16.7282 77.0257 16.6296 77.0208C16.531 77.0159 16.4346 76.9901 16.3468 76.9451V76.9451Z" fill="#FBED26"/>
<path d="M113.897 61.6779L113.478 64.3556C113.478 64.3556 107.282 67.9702 103.246 69.7348C101.697 70.4054 95.931 72.3792 95.931 72.3792L93.1479 71.428C93.1479 71.428 108.321 65.5494 113.897 61.6779Z" fill="white"/>
<defs>
<linearGradient id="paint0_linear_2_4" x1="10.4709" y1="55.0146" x2="106.091" y2="55.0146" gradientUnits="userSpaceOnUse">
<stop stop-color="#FAFCF8"/>
<stop offset="1" stop-color="#BEDB88"/>
</linearGradient>
</defs>
</svg>
