<svg width="140" height="125" viewBox="0 0 140 125" fill="none" xmlns="http://www.w3.org/2000/svg">
<g clip-path="url(#clip0_2:2)">
<path d="M65.2761 115.022C94.8503 115.022 118.825 91.0945 118.825 61.5784C118.825 32.0623 94.8503 8.13483 65.2761 8.13483C35.7018 8.13483 11.7272 32.0623 11.7272 61.5784C11.7272 91.0945 35.7018 115.022 65.2761 115.022Z" fill="url(#paint0_linear_2:2)"/>
<path d="M69.6103 1.59397e-05C71.0142 0.175817 72.4234 0.340964 73.8219 0.532747C80.5198 1.38562 87.0203 3.3842 93.038 6.44073C109.162 14.6732 119.908 27.425 125.278 44.6961C125.321 44.8293 125.342 44.9625 125.374 45.101C125.257 45.703 125.625 46.2144 125.716 46.7738C125.785 47.184 125.898 47.5942 125.967 48.0044C126.123 48.8324 125.993 49.6887 125.599 50.4337C125.011 51.5364 124.531 52.6924 123.463 53.5022C123.002 53.9271 122.572 54.3846 122.177 54.8713C121.163 55.9368 120.042 56.8797 118.937 57.8386C118.775 57.9535 118.588 58.0292 118.392 58.0598C118.196 58.0903 117.995 58.0747 117.805 58.0144C117.735 57.9968 117.673 57.9554 117.629 57.8972C117.442 56.917 117.4 55.9208 117.261 54.9352C116.093 46.6234 112.929 38.7167 108.037 31.8893C106.847 30.2001 105.538 28.5978 104.119 27.0947C101.24 23.8516 97.9363 21.0098 94.2977 18.6456C91.5455 16.7984 88.6146 15.2315 85.549 13.9682C82.4835 12.6993 79.3087 11.7115 76.0637 11.0169C75.7435 10.9423 75.4179 10.953 75.0976 10.8784C71.5944 10.184 68.0242 9.88379 64.454 9.98339C61.6689 9.98917 58.8898 10.2387 56.1484 10.7292C52.4983 11.3379 48.9294 12.3584 45.5101 13.7711C42.01 15.1449 38.6818 16.9201 35.5925 19.0611C32.3188 21.3063 29.2962 23.896 26.5769 26.7857C26.4356 26.9383 26.3071 27.1022 26.1926 27.2758C23.2621 30.4874 20.7676 34.0697 18.7731 37.9305C17.66 39.9484 16.7156 42.0545 15.9494 44.2273C14.5593 47.9823 13.5978 51.8816 13.083 55.8515C12.8187 58.1325 12.6957 60.4276 12.7147 62.7238C12.7342 65.6282 12.9985 68.5258 13.5046 71.386C13.5313 71.5671 13.5687 71.7482 13.5954 71.9187C13.6214 72.0189 13.6267 72.1232 13.6109 72.2255C13.5952 72.3278 13.5587 72.4257 13.5037 72.5135C13.4488 72.6012 13.3765 72.6768 13.2913 72.7358C13.2062 72.7947 13.1098 72.8357 13.0082 72.8563C11.4466 73.3937 9.92054 74.029 8.43907 74.7582C7.38343 75.2459 6.36321 75.8066 5.38585 76.4363C4.53713 77.0223 4.2222 76.8784 4.03538 75.8716C3.73646 74.4119 3.41619 72.9149 3.20268 71.386C3.03721 70.1074 2.96248 68.8022 2.78633 67.529C2.46073 65.2116 2.71694 62.8889 2.55681 60.6035C2.47674 59.3889 2.80235 58.2062 2.81836 57.0022C2.90743 55.2129 3.12686 53.4324 3.47491 51.6749C3.72579 50.1353 4.07808 48.6064 4.47842 47.0881C5.08467 44.6709 5.82601 42.2894 6.69895 39.9548C8.29912 35.7941 10.3485 31.8196 12.8107 28.1016C14.5342 25.4917 16.4448 23.0097 18.5275 20.6753C22.6067 16.1102 27.3348 12.1669 32.5606 8.97121C36.0948 6.78373 39.8525 4.97824 43.77 3.5853C45.9051 2.82349 48.0776 2.20019 50.2715 1.59821C51.9102 1.1667 53.5702 0.873695 55.2249 0.559383C56.9495 0.192612 58.7088 0.0139862 60.472 0.0266525C60.6268 0.0266525 60.8029 0.0799256 60.9417 -0.0426025L69.6103 1.59397e-05Z" fill="#079247"/>
<path d="M56.8797 124.254C51.2959 123.486 45.8403 121.976 40.6581 119.763C29.6063 115.039 20.1543 107.233 13.4353 97.282C13.1951 96.9358 12.9976 96.5682 12.7841 96.2166C12.8534 96.1375 12.9446 96.0806 13.0462 96.0531C13.1478 96.0256 13.2553 96.0287 13.3552 96.0621C17.2219 96.5396 21.1174 96.7461 25.013 96.6801C25.1046 96.6847 25.1957 96.6972 25.2852 96.7173C25.4447 96.7534 25.5942 96.8244 25.7229 96.9251C29.853 101.582 34.7598 105.489 40.2257 108.475C41.5815 109.205 42.9694 109.86 44.3679 110.488C45.0031 110.776 45.0351 110.734 45.1312 110.036C45.777 105.316 46.3162 100.585 46.9407 95.865C46.9834 95.5613 47.0261 95.2577 47.3357 95.0925C49.9192 94.677 52.5134 94.3573 55.0915 93.9525C55.1937 93.9276 55.3001 93.9252 55.4033 93.9454C55.5066 93.9657 55.6042 94.0081 55.6894 94.0697C55.8882 94.5415 55.9863 95.0495 55.9776 95.5613C56.2231 99.8232 56.6875 104.117 57.0452 108.389C57.1946 110.078 57.3654 111.767 57.4882 113.456C57.4802 113.563 57.4943 113.672 57.5297 113.774C57.565 113.876 57.6209 113.97 57.6938 114.05C57.7668 114.129 57.8553 114.193 57.954 114.238C58.0526 114.282 58.1593 114.306 58.2675 114.308C60.0877 114.606 61.9239 114.638 63.7548 114.761C64.0217 114.761 64.2886 114.836 64.5555 114.83C64.8223 114.825 65.0892 114.772 65.3454 114.788C66.5922 114.882 67.8456 114.835 69.0819 114.649C69.3788 114.676 69.678 114.654 69.968 114.585C70.7304 114.561 71.4885 114.461 72.2312 114.287C72.7544 114.316 73.2779 114.236 73.7685 114.052C74.0941 113.994 74.4251 113.988 74.7507 113.941C77.9991 113.392 81.1767 112.487 84.2253 111.24C84.3521 111.184 84.4822 111.136 84.6149 111.096C85.8519 110.695 87.0535 110.192 88.2073 109.593C91.2944 108.088 94.2263 106.284 96.9613 104.208C99.7309 102.127 102.283 99.7731 104.578 97.1808C106.592 94.9303 108.407 92.5097 110.002 89.9463C110.11 89.8478 110.243 89.7798 110.386 89.7492C111.031 89.6667 111.687 89.7249 112.307 89.9197C114.624 90.5856 116.882 91.4167 119.161 92.2104C119.328 92.2578 119.481 92.3452 119.607 92.465C119.732 92.5847 119.827 92.7333 119.882 92.8977C119.727 93.798 119.102 94.4692 118.654 95.2097C117.199 97.5821 115.58 99.85 113.807 101.997C113.076 102.897 112.297 103.755 111.523 104.618C109.894 106.401 108.158 108.084 106.324 109.657C104.136 111.559 101.817 113.306 99.3846 114.883C97.4974 116.123 95.5366 117.247 93.5131 118.25C90.7117 119.652 87.8087 120.842 84.8284 121.809C82.6186 122.512 80.382 123.072 78.1402 123.636C77.7371 123.746 77.317 123.778 76.9018 123.732L73.539 124.265C73.3449 124.431 73.1045 124.533 72.8504 124.558C69.8241 124.9 66.7787 125.046 63.7334 124.995C61.9453 124.952 60.1624 124.808 58.3956 124.601C58.1608 124.574 57.9259 124.601 57.6964 124.574C57.544 124.6 57.3874 124.584 57.2434 124.528C57.0995 124.471 56.9737 124.377 56.8797 124.254V124.254Z" fill="#079247"/>
<path d="M125.972 46.7738C129.292 47.3811 132.543 48.2175 135.548 49.821C136.478 50.3052 137.335 50.9167 138.094 51.6376C140.23 53.694 140.571 56.1019 139.162 58.7283C137.933 60.8717 136.289 62.7496 134.326 64.2527C129.1 68.5518 123.165 71.679 117.144 74.6676C113.135 76.6059 109.026 78.3308 104.835 79.8351C104.584 79.9473 104.301 79.9643 104.039 79.883C99.0804 78.3275 94.0949 76.8678 89.056 75.6212C89.0127 75.6035 88.9729 75.5782 88.9385 75.5466C88.9973 75.2323 89.2855 75.2003 89.5043 75.0991C90.636 74.5664 91.8049 74.1402 92.9259 73.5968C93.8173 73.2559 94.666 72.819 95.5521 72.4621C95.9007 72.3422 96.2368 72.1888 96.5556 72.0039C98.6213 71.0397 100.692 70.0861 102.726 69.0526C107.714 66.5881 112.529 63.7902 117.138 60.6781C117.426 60.481 117.709 60.2785 117.976 60.0548C120.048 58.6271 121.961 56.9823 123.682 55.1483C124.442 54.3575 125.067 53.4489 125.535 52.458C126.138 51.1529 125.94 49.7944 125.935 48.4093C125.935 47.8606 125.652 47.3119 125.972 46.7738Z" fill="#2D286D"/>
<path d="M56.3245 56.8104C56.3726 58.8135 56.5808 60.8006 56.7889 62.7823C56.837 63.2352 56.9384 63.7999 57.5896 63.8478C58.2408 63.8958 58.5557 63.5442 58.7639 62.9795C58.8937 62.6056 58.964 62.2137 58.9721 61.8181C59.2283 55.4253 59.1803 48.9899 58.9721 42.5759C58.8974 40.4876 58.7693 38.3993 58.6411 36.3109C58.6411 35.9007 58.6411 35.709 59.1269 35.7303C60.5948 35.8102 60.3386 35.3946 60.5467 36.9928C60.8777 39.5713 61.5022 42.1017 61.8705 44.6748C62.495 49.0485 63.0662 53.4329 62.9861 57.8599C62.902 61.8132 62.1215 65.7209 60.6802 69.4042C60.4987 69.873 60.1464 69.7878 59.8422 69.8091C53.9022 68.9384 47.9213 68.373 41.9231 68.115C41.6605 67.9147 41.4817 67.6242 41.4214 67.2999C40.7312 65.1791 40.2661 62.9917 40.0336 60.774C39.8689 59.9544 39.7778 59.1218 39.7613 58.2861C39.8734 56.5068 39.9855 54.7221 40.1029 52.9588C40.2364 50.9877 40.3592 49.0166 40.562 47.0561C40.9356 43.4868 41.6296 39.9708 42.2007 36.4388C42.3341 35.6077 43.802 35.1496 44.4159 35.7249C44.5115 35.8279 44.5808 35.9524 44.6179 36.0878C44.6551 36.2232 44.659 36.3655 44.6294 36.5027C44.3785 39.0971 44.4479 41.7022 44.2558 44.2966C44.2558 44.4351 44.2558 44.5736 44.2558 44.7121C44.2184 49.3362 43.9942 53.9603 44.1383 58.5631C44.181 60.0601 44.1383 61.5944 44.6721 63.0487C44.7735 63.4589 45.0191 63.7306 45.4621 63.6667C45.9051 63.6028 46.0599 63.2298 46.1026 62.7983C46.2254 61.4612 46.2841 60.1347 46.4016 58.7762C46.5937 56.4908 46.7218 54.2001 46.8926 51.9146C47.0207 50.2259 47.1382 48.5371 47.2236 46.8484C47.325 44.7174 47.4745 42.5865 47.5972 40.4556C47.672 39.1824 47.7947 37.9145 47.7947 36.6359C47.7947 35.7942 48.0563 35.5704 48.8036 35.5225C49.7003 35.4852 50.0153 35.7356 49.9939 36.6412C49.9405 39.1078 50.1167 41.5637 50.17 44.0302C50.2715 48.6277 50.3996 53.2252 50.4583 57.828C50.4583 59.0532 50.549 60.2892 50.5704 61.5198C50.5657 61.9627 50.6702 62.3999 50.8746 62.793C50.9472 62.9502 51.063 63.0837 51.2085 63.178C51.3539 63.2723 51.5232 63.3235 51.6967 63.3257C51.8733 63.3209 52.0443 63.2621 52.1865 63.1574C52.3287 63.0526 52.4353 62.9068 52.492 62.7397C52.6391 62.4222 52.7294 62.0815 52.7589 61.7329C52.7883 61.5015 52.799 61.2681 52.7909 61.035C52.7002 57.5243 52.903 54.0189 52.9617 50.5082C53.0258 46.4222 53.1912 42.3361 53.2179 38.2554C53.2179 37.5842 53.3407 36.9129 53.3781 36.2417C53.4101 35.661 53.6556 35.5012 54.3335 35.5012C55.0114 35.5012 55.257 35.6557 55.2997 36.231C55.4064 37.8079 55.5043 39.383 55.5933 40.9564C55.7178 43.0447 55.8459 45.1312 55.9776 47.2159C56.0897 49.0006 56.2018 50.7852 56.2818 52.5752C56.3352 53.7312 56.4954 54.8873 56.4687 56.054C56.426 56.331 56.522 56.592 56.3245 56.8104Z" fill="#079247"/>
<path d="M25.3492 96.8718C21.1447 96.9742 16.9386 96.7534 12.768 96.2112C11.9567 95.817 11.0599 95.6146 10.334 95.0499C10.2503 95.0239 10.1799 94.9669 10.1371 94.8905C10.0944 94.8142 10.0827 94.7244 10.1045 94.6397C10.1339 94.0844 10.2399 93.5359 10.4194 93.0095C10.6436 92.1998 10.9532 92.0506 11.7966 92.1039C15.106 92.301 18.4261 92.253 21.7356 92.1039C23.3369 92.008 24.8902 91.9281 26.4648 91.7949C29.8971 91.5019 33.3026 91.0278 36.7081 90.5057C40.0175 89.973 43.3003 89.339 46.583 88.6624C46.9727 88.5825 47.3517 88.4707 47.7307 88.3588C50.1807 87.8793 52.6041 87.2933 55.0114 86.6274C57.4615 86.0947 59.8528 85.3488 62.2602 84.6723C62.5904 84.5643 62.9329 84.498 63.2797 84.4752C63.8595 84.4505 64.4296 84.3187 64.9611 84.0863C66.2659 83.6715 67.6117 83.3982 68.9751 83.2712C69.3009 83.2505 69.6279 83.2756 69.9466 83.3458C70.6786 83.4823 71.4226 83.5447 72.1671 83.5322C74.0354 83.5322 75.8716 83.8412 77.7238 83.9851C79.1116 84.0916 80.4995 84.2301 81.8819 84.3686C83.3605 84.5071 84.8391 84.6403 86.3177 84.8161C86.4119 84.8149 86.5041 84.843 86.5815 84.8964C86.659 84.9499 86.7179 85.0261 86.75 85.1144C86.7704 85.2066 86.7606 85.3029 86.7222 85.3892C86.6838 85.4755 86.6187 85.5472 86.5365 85.5939C86.3798 85.6927 86.2348 85.8089 86.1042 85.9402C84.7364 86.4649 83.3324 86.8904 81.9033 87.2134C70.5618 90.3433 59.06 92.8632 47.4478 94.7622C43.9284 95.334 40.3983 95.8081 36.8576 96.1846C33.6549 96.5309 30.4522 96.8505 27.2015 96.9198C26.5823 96.9571 25.9578 97.1595 25.3492 96.8718Z" fill="#2D286C"/>
<path d="M85.8373 74.8381L80.9478 73.6767C80.6916 73.3251 80.9105 72.9948 81.0279 72.6858C82.2609 69.4309 83.4673 66.1599 84.679 62.8996C85.6771 60.2359 86.6967 57.5723 87.6628 54.8713C87.9938 54.0296 88.3105 53.1843 88.6129 52.3355C88.8745 51.6217 89.0613 51.5524 89.7339 51.9466C90.2994 52.2689 90.789 52.7086 91.1698 53.2358C91.7949 54.1071 92.2356 55.0964 92.465 56.1433C92.6944 57.1902 92.7078 58.2727 92.5042 59.325C92.4509 59.9059 92.5089 60.4917 92.675 61.051C92.7978 61.637 93.1821 61.7489 93.6465 61.3547C94.2817 60.8219 94.8262 60.1667 95.5147 59.6819C96.6357 58.8934 97.7406 58.0837 99.1711 57.9079C99.3259 57.9398 99.5288 57.9452 99.5341 58.1476C99.5394 58.3501 99.3526 58.398 99.2138 58.4779C98.5389 58.7682 97.9167 59.1678 97.3723 59.6606C98.3137 59.3118 99.3093 59.1315 100.313 59.1278C101.183 59.1918 101.381 59.5221 100.911 60.1933C98.9309 62.9795 97.2228 65.9361 95.4934 68.8821C95.2265 69.3403 94.9329 69.7931 94.7034 70.2726C94.3783 70.9307 93.9195 71.514 93.3562 71.9855C92.7928 72.4569 92.1373 72.8061 91.4313 73.0108C90.5452 73.3145 89.7125 73.73 88.8638 74.0763C87.839 74.5291 87.6254 74.4066 87.6148 73.2985C87.6148 73.2292 87.6148 73.16 87.6148 73.0907C87.7957 72.3704 88.0589 71.6733 88.3994 71.0131C89.1681 69.0473 90.1075 67.1508 90.9349 65.2116C90.9911 65.0498 91.0645 64.8944 91.1537 64.7482C90.652 65.771 90.1556 66.943 89.6271 68.0937C88.6823 70.166 87.6681 72.2011 86.7447 74.284C86.5686 74.7582 86.3284 75.0139 85.8373 74.8381Z" fill="#D92927"/>
<path d="M125.972 46.7738C126.026 47.7007 126.042 48.6277 126.143 49.544C126.232 50.3873 126.146 51.2398 125.892 52.0488C125.638 52.8579 125.22 53.6063 124.664 54.248C122.777 56.5745 120.528 58.5836 118.003 60.1986C117.421 59.4901 117.587 58.7283 117.864 57.9665C118.814 58.0144 119.316 57.2792 119.951 56.7731C121.371 55.6491 122.487 54.2107 123.821 52.9908C124.547 52.3355 124.947 51.3926 125.422 50.4869C126.244 48.926 125.673 47.3864 125.369 45.8415C125.321 45.5911 125.214 45.3567 125.369 45.117C125.48 45.6979 125.684 46.2572 125.972 46.7738V46.7738Z" fill="#117E42"/>
<path d="M87.7802 73.096C87.7802 74.6569 87.9564 74.4119 89.0346 73.8472C90.3264 73.176 91.7729 72.8723 93.0166 72.0679C94.0201 71.4179 94.4418 70.3791 95.0023 69.4415C96.262 67.3106 97.4417 65.1797 98.7921 63.086C99.4647 62.0632 100.164 61.0563 100.842 60.0335C101.183 59.5008 101.093 59.3729 100.468 59.3249C99.5188 59.2791 98.5702 59.4297 97.6819 59.7671C97.463 59.8417 97.2602 59.9749 97.0413 59.7671C97.536 59.3398 98.16 59.0903 98.8135 59.0586C99.5512 58.9548 100.299 58.944 101.039 59.0266C101.691 59.0799 101.813 59.3622 101.424 59.8896C99.1959 63.0629 97.1397 66.3528 95.2638 69.7452C94.6233 70.8479 94.0575 71.9933 93.4116 73.0907C93.2936 73.3177 93.1425 73.526 92.9633 73.7087C91.6875 74.4652 90.2516 74.8647 88.9385 75.5359L86.9529 75.1151C86.9025 74.7358 86.9523 74.3499 87.0974 73.9957C87.2426 73.6416 87.478 73.3314 87.7802 73.096V73.096Z" fill="#BD2A28"/>
<path d="M0.245544 86.6807V86.1479C0.469732 86.1479 0.512435 86.3078 0.571151 86.4463C1.63871 88.9128 3.53363 90.6282 5.65274 92.1465C6.7782 92.9307 7.94923 93.6476 9.15968 94.2934C9.50364 94.4426 9.86113 94.5586 10.2272 94.6397C10.2426 94.7064 10.2331 94.7765 10.2006 94.8368L10.3553 95.0446C10.2006 95.0446 10.0084 95.0446 9.939 95.2204C9.70414 95.881 9.29313 95.7904 8.7807 95.54C6.52644 94.4462 4.49841 92.939 2.80235 91.097C1.78283 89.9943 1.2277 88.5612 0.539124 87.2347C0.443043 87.0429 0.341625 86.8671 0.245544 86.6807Z" fill="#D7D5CC"/>
<path d="M79.5333 73.3837C79.6294 72.5527 80.0671 71.8548 80.3767 71.0876C80.4301 70.9385 80.4781 70.784 80.5262 70.6348C80.5461 70.3809 80.6037 70.1314 80.697 69.8943C82.2556 66.2771 83.8196 62.6652 85.4209 59.0692C85.5277 58.8189 85.5864 58.4619 85.9974 58.4886C86.2163 58.8988 85.9974 59.261 85.8373 59.618C84.5242 63.0221 83.2538 66.4422 81.946 69.8464C81.5617 70.8426 81.2147 71.8548 80.7984 72.8403C80.6916 73.096 80.6222 73.3731 80.35 73.5222C80.0778 73.6714 79.8269 73.3837 79.5333 73.3837Z" fill="#C43828"/>
<path d="M80.3607 73.5169L85.8159 59.1651C85.9407 58.9138 86.0012 58.6356 85.9921 58.3554C85.9157 58.2903 85.8683 58.1977 85.8603 58.0978C85.8523 57.9979 85.8843 57.899 85.9494 57.8226C86.538 56.9912 87.0338 56.098 87.4279 55.159C87.492 55.0045 87.5667 54.7861 87.8283 54.8926C86.9956 57.1514 86.1789 59.4208 85.3355 61.6796C83.9423 65.4407 82.5278 69.2018 81.1293 72.9575C81.0058 73.1846 80.9433 73.4397 80.9478 73.698L80.3607 73.5169Z" fill="#F5D0A1"/>
<path d="M87.7802 73.096C87.4096 73.7263 87.131 74.4062 86.9529 75.1151C86.6219 74.854 86.1682 75.147 85.8373 74.8647C86.2376 74.9393 86.3711 74.7049 86.5419 74.3799C88.0738 71.1249 89.6218 67.8753 91.2765 64.6682C91.1431 65.0038 91.0203 65.3395 90.8815 65.6697C89.846 68.1416 88.8122 70.617 87.7802 73.096Z" fill="#FBDFDB"/>
<path d="M69.1673 114.761C67.8848 115.067 66.5527 115.105 65.2547 114.873C65.0732 114.505 65.2867 114.191 65.4095 113.877C68.0197 107.244 70.5178 100.558 73.0639 93.9098C73.4109 92.9989 73.7525 92.0826 74.0994 91.1716C74.1768 90.849 74.3658 90.5641 74.6332 90.3672C76.1438 89.8931 77.7025 89.6054 79.2451 89.3017C79.7789 89.1899 79.8856 89.3923 79.6721 89.9623C79.1917 91.2249 78.6045 92.4395 78.0708 93.6914C75.135 100.439 72.3237 107.249 69.637 114.122C69.5634 114.385 69.3965 114.612 69.1673 114.761V114.761Z" fill="#D92927"/>
<path d="M69.1673 114.761C72.37 106.514 75.7808 98.3635 79.3091 90.2553C79.4319 89.9836 79.544 89.7226 79.6988 89.339L74.6012 90.4524C74.3023 90.7561 73.8859 90.7401 73.5336 90.8466C73.1813 90.9532 72.733 91.1876 72.2899 91.0331C71.1423 91.0331 70.0747 91.4646 68.9645 91.667C65.607 92.285 62.2602 92.9775 58.8867 93.5209C57.8191 93.6967 56.7035 93.8992 55.6146 94.091C53.4795 94.384 51.3924 94.6876 49.2786 94.9753C48.6114 95.0712 47.9388 95.1351 47.2716 95.215C45.9372 95.5133 44.5653 95.5613 43.2149 95.7477C41.5655 95.9608 39.9054 96.126 38.2507 96.2805C37.0764 96.3977 35.8967 96.4882 34.7224 96.5841C32.5981 96.696 30.4844 96.9577 28.3971 97.3673C27.9394 97.4953 27.4608 97.5316 26.989 97.474C26.5172 97.4164 26.0614 97.2661 25.6482 97.0316C25.5254 97.0316 25.4026 96.9943 25.3439 96.8612C27.6658 96.7173 29.9931 96.6108 32.3151 96.4243C36.5213 96.094 40.7008 95.5613 44.8803 94.9486C49.9832 94.2082 55.0541 93.2972 60.1037 92.253C68.3506 90.543 76.5335 88.5665 84.6576 86.2598C85.1113 86.1319 85.5597 85.9828 86.0081 85.8389C86.7365 85.4201 87.5503 85.1706 88.3887 85.1091C89.1603 85.3977 89.9628 85.5961 90.7801 85.7004C91.1057 85.7004 91.4633 85.8816 91.3139 86.3663L91.047 86.4143L88.7784 87.1068C88.3514 87.4904 87.7802 87.5011 87.2731 87.6662C86.6326 87.7887 86.0081 87.9752 85.3729 88.1137C84.1559 88.4387 82.9442 88.753 81.7218 89.0407C81.5159 89.0816 81.3237 89.1739 81.1632 89.309C81.0026 89.444 80.879 89.6175 80.8037 89.8131C79.3251 93.2972 77.8199 96.7386 76.32 100.244C74.3129 104.889 72.3166 109.54 70.2829 114.175C70.2225 114.378 70.0945 114.555 69.9199 114.676C69.8253 114.777 69.6975 114.842 69.5594 114.857C69.4214 114.873 69.2823 114.839 69.1673 114.761V114.761Z" fill="#FEFDFD"/>
<path d="M69.8879 114.686C71.0782 111.911 72.2579 109.135 73.4536 106.365C75.8485 100.8 78.2416 95.2328 80.6329 89.664C80.706 89.4617 80.8323 89.2827 80.9985 89.1459C81.1647 89.009 81.3648 88.9193 81.5777 88.8862C82.8001 88.6092 84.0117 88.2736 85.2288 87.9646C85.5277 88.3322 85.1967 88.6092 85.0633 88.8809C83.0171 92.9758 80.9692 97.0601 78.9195 101.134C76.8217 105.284 74.8254 109.476 72.781 113.653C72.6422 113.941 72.5461 114.265 72.2472 114.425C71.4876 114.675 70.684 114.764 69.8879 114.686Z" fill="#D92927"/>
<path d="M72.2205 114.452C76.3733 105.861 80.608 97.3086 84.9245 88.7956C85.1069 88.5552 85.2129 88.2657 85.2287 87.9646C85.8718 87.7815 86.5262 87.6409 87.1877 87.5437C87.3318 87.7994 87.1557 87.9859 87.0489 88.183C83.4904 94.8208 80.0368 101.521 76.6883 108.283C75.8289 110.036 75.0122 111.81 74.1688 113.573C74.0621 113.791 74.014 114.068 73.7311 114.17C73.2827 114.537 72.7436 114.457 72.2205 114.452Z" fill="#D7E3AB"/>
<path d="M73.7311 114.17C75.7542 109.689 77.964 105.3 80.1792 100.91C82.4478 96.419 84.8284 91.9867 87.1877 87.5437C87.6887 87.3411 88.2119 87.198 88.7464 87.1175L82.9068 98.3795L74.772 114.09C74.4374 114.204 74.0793 114.231 73.7311 114.17V114.17Z" fill="#D32C27"/>
<path d="M72.2953 91.0437C72.6987 90.8873 73.1173 90.7731 73.5443 90.7028C74.0781 90.6602 73.8806 91.0224 73.8112 91.2355C73.5496 92.0772 73.192 92.887 72.8771 93.7127C70.2865 100.539 67.6923 107.361 65.0946 114.18C64.9878 114.463 64.9718 114.841 64.5608 114.937C64.3428 114.99 64.1129 114.968 63.9096 114.873C65.2067 110.531 66.7226 106.264 68.2492 102.002C69.4822 98.5499 70.8007 95.1245 72.0764 91.6883C72.1618 91.4859 72.2205 91.2622 72.2953 91.0437Z" fill="#D22D27"/>
<path d="M110.06 90.0315C108.256 89.4615 106.441 88.9181 104.6 88.4813C103.452 88.2149 102.326 87.826 101.167 87.6236C99.0323 87.2507 96.9399 86.6327 94.7621 86.3663C94.2979 86.3197 93.8588 86.134 93.5024 85.8336C93.6038 85.3541 94.1322 85.5513 94.4205 85.2263C93.6305 85.1997 92.9312 84.912 92.1786 84.8853C91.7676 84.8853 91.3352 84.8481 91.111 84.4165C91.1085 84.3791 91.1174 84.3419 91.1364 84.3095C91.1554 84.2772 91.1838 84.2514 91.2178 84.2354C92.7392 84.3101 94.248 84.5494 95.7176 84.9493C96.7338 85.268 97.7773 85.4927 98.8348 85.6205C100.057 85.8656 101.269 86.1533 102.497 86.3557C104.029 86.6221 105.518 87.0482 107.039 87.3519C108.235 87.5916 109.409 87.9432 110.589 88.2789C110.724 88.3132 110.844 88.3943 110.925 88.5079C111.074 89.1259 110.679 89.4935 110.29 89.8611L110.06 90.0315Z" fill="#A2B977"/>
<path d="M64.5875 114.953C65.623 112.289 66.6639 109.593 67.6887 106.908C69.6637 101.73 71.6209 96.5486 73.5603 91.3634C73.6297 91.1876 74.0194 90.9052 73.5603 90.7028C73.8966 90.495 74.3023 90.6282 74.6279 90.4631C73.9553 91.8162 73.5123 93.2599 72.9732 94.661C70.4537 101.199 67.9449 107.738 65.4469 114.276C65.3721 114.473 65.3187 114.676 65.2547 114.873C65.1589 114.941 65.0478 114.983 64.9312 114.997C64.8147 115.011 64.6965 114.996 64.5875 114.953V114.953Z" fill="#F2DBB2"/>
<path d="M110.284 89.8717C110.487 89.4615 110.685 89.046 110.882 88.6358C110.93 88.5026 110.909 88.3321 111.085 88.2629C111.284 88.1939 111.5 88.1939 111.699 88.2629C114.368 89.0087 117.037 89.7758 119.631 90.7241C120.042 90.8733 120.576 90.8946 120.747 91.4433C120.614 91.9602 120.328 92.4248 119.925 92.7751L119.802 92.9456C119.615 92.7485 119.513 92.4821 119.209 92.3809C116.786 91.5925 114.405 90.6708 111.944 89.9943C111.395 89.9112 110.84 89.8703 110.284 89.8717V89.8717Z" fill="#18743B"/>
<path d="M95.6321 72.526C96.8705 70.1607 98.301 67.8966 99.6408 65.6005C99.9257 65.077 100.272 64.5888 100.671 64.1462C99.5821 66.3091 98.4968 68.4719 97.415 70.6348L96.6143 72.0998C96.3456 72.3502 95.9988 72.5007 95.6321 72.526V72.526Z" fill="#A84127"/>
<path d="M55.0755 86.7872C52.691 87.5176 50.2628 88.0976 47.8054 88.5239C47.3677 87.906 47.7307 87.2827 47.8054 86.6594C47.9379 85.4198 47.9379 84.1698 47.8054 82.9302C47.7374 82.6357 47.7503 82.3284 47.8428 82.0406C47.9276 81.9294 48.0405 81.8426 48.1699 81.7893C48.2993 81.7359 48.4407 81.7178 48.5794 81.7369C50.453 81.6837 52.3158 81.5132 54.2001 81.5878C54.4766 81.5715 54.7534 81.6151 55.0114 81.7156C55.1253 81.7948 55.2038 81.9152 55.2303 82.0512C55.2804 82.4041 55.2929 82.7612 55.2676 83.1167C55.305 84.0863 55.2676 85.0558 55.2676 86.0254C55.2887 86.1588 55.2825 86.295 55.2495 86.4259C55.2165 86.5568 55.1573 86.6797 55.0755 86.7872V86.7872Z" fill="#0A8C45"/>
<path d="M47.9388 86.6647C47.8304 87.2782 47.7857 87.9012 47.8054 88.5239C46.5066 88.9443 45.1745 89.2544 43.8234 89.4509C38.407 90.5692 32.9353 91.4015 27.431 91.944C25.562 92.1846 23.6786 92.2949 21.7943 92.2743C21.4366 92.1785 21.3352 91.8641 21.2018 91.5711C21.2018 91.422 21.1324 91.2728 21.3406 91.2142C22.2613 91.4787 23.2424 91.4451 24.1429 91.1183C24.3625 91.0367 24.5925 90.9864 24.8261 90.9692C27.7623 90.715 30.6791 90.2737 33.5588 89.648C37.1351 88.9075 40.6954 88.1297 44.2344 87.2241C45.0938 87.0056 45.9051 86.6381 46.7645 86.4463C47.2983 86.3344 47.4424 85.7484 47.9709 85.7164C48.0379 86.0304 48.0269 86.356 47.9388 86.6647V86.6647Z" fill="#D8DDCD"/>
<path d="M91.1644 84.374L91.047 84.4592C90.2055 84.9134 89.2783 85.1874 88.3247 85.2636L85.9921 85.855C86.0094 85.8114 86.029 85.7687 86.0508 85.7271C86.1789 85.4714 86.7607 85.5406 86.5846 85.1464C86.4565 84.8481 86.0508 85.0346 85.7519 85.0079C83.179 84.8055 80.6169 84.4752 78.0441 84.2674C75.6954 84.081 73.3575 83.7347 70.9928 83.7347C70.0587 83.7347 69.1566 83.4417 68.1798 83.5802C67.0749 83.74 66.0447 84.0703 64.9504 84.31C64.3633 84.4379 63.8295 84.9067 63.1676 84.6457C63.4185 84.2514 63.8775 84.2674 64.2352 84.1129C64.8116 83.8785 65.4255 83.772 66.0127 83.5802C67.2937 83.2339 68.5374 82.7864 69.7918 82.3549C70.3774 82.1957 70.9846 82.131 71.5907 82.1631C74.1742 82.2803 76.747 82.5094 79.3198 82.7438C82.9122 83.0741 86.4938 83.4843 90.0702 83.9957C90.4705 84.033 90.9028 83.9957 91.1644 84.374Z" fill="#272156"/>
<path d="M62.3349 84.8428C62.1214 84.6829 61.8011 84.7256 61.7264 84.31C61.6837 83.9691 61.2407 83.9211 60.9524 83.7773C59.5809 83.2061 58.0959 82.9582 56.6128 83.0528H55.0755V82.0779C55.321 81.8435 55.6093 81.8914 55.9295 81.8808C57.4401 81.8275 58.9401 81.9447 60.4453 82.014C61.2353 82.0513 62.0467 82.014 62.81 82.0459C63.9227 82.3219 64.9755 82.7986 65.9166 83.4523C65.9694 83.475 66.0149 83.512 66.0479 83.559C66.0809 83.6061 66.1001 83.6614 66.1034 83.7187L63.1729 84.6403L62.3349 84.8428Z" fill="#B6C19D"/>
<path d="M21.3512 91.5765L21.8156 92.2744C21.6141 92.3961 21.3747 92.4397 21.1431 92.3969H12.4798C12.3411 92.405 12.2021 92.405 12.0634 92.3969C10.8037 92.2584 10.8037 92.2584 10.5262 93.4624C10.4141 93.9365 10.3073 94.4053 10.2006 94.8794L10.1525 94.6717C10.0818 94.5643 10.0369 94.4421 10.0211 94.3146C10.0054 94.1871 10.0193 94.0578 10.0618 93.9365C10.2835 92.8707 10.5869 91.8235 10.9692 90.804C11.3432 89.9248 11.9527 89.1654 12.7307 88.6092C14.2336 87.5157 15.9048 86.6736 17.6788 86.116C17.776 86.0751 17.8803 86.054 17.9857 86.054C18.0912 86.054 18.1955 86.0751 18.2927 86.116C18.6453 86.4931 18.8678 86.9728 18.9279 87.4851C18.9231 87.5223 18.9081 87.5574 18.8846 87.5865C18.861 87.6157 18.8298 87.6377 18.7944 87.6503C17.2358 87.6503 15.9494 88.4707 14.6309 89.1579C14.1772 89.3923 13.7662 89.6906 13.3125 89.9463C13.0466 90.0936 12.8211 90.3041 12.6559 90.559C12.0314 91.5232 12.1916 91.9015 13.3072 92.024C15.5864 92.2637 17.871 92.0879 20.1502 92.1252C20.6093 92.0719 20.9242 91.715 21.3512 91.5765Z" fill="#1A733B"/>
<path d="M115.622 78.0664C119.332 76.3297 122.924 74.3746 126.453 72.2969C126.65 72.1797 126.821 71.9986 127.082 72.0412C126.358 76.5787 125.142 81.0246 123.458 85.3009C123.245 85.8336 122.999 86.3664 122.791 86.8991C122.689 87.1708 122.588 87.2614 122.294 87.0962C119.533 85.6495 116.68 84.3825 113.754 83.3032C113.696 83.1774 113.67 83.0398 113.676 82.9018C113.683 82.7637 113.722 82.6292 113.791 82.5094C114.293 81.3214 114.72 80.1068 115.104 78.8762C115.215 78.5712 115.391 78.2945 115.622 78.0664V78.0664Z" fill="#079247"/>
<path d="M103.847 43.0127C103.231 42.9512 102.652 42.6879 102.201 42.264C101.75 41.84 101.452 41.2791 101.354 40.6687C101.322 40.5089 101.354 40.3384 101.231 40.2105V39.2943C98.3277 41.4838 95.7762 43.9237 93.0113 46.1239C93.15 45.9694 93.2888 45.8095 93.4383 45.6604L101.333 37.6161C101.546 37.4031 101.728 37.1633 101.925 36.9396L105.977 32.6777H106.126C104.525 39.8589 104.279 47.2 103.564 54.6742C103.301 53.9434 103.174 53.1705 103.19 52.3941C103.206 49.4686 103.405 46.5471 103.788 43.6467C103.815 43.4389 103.831 43.2311 103.852 43.0287C104.114 42.9062 104.119 43.1193 104.141 43.2631C104.17 43.5019 104.17 43.7434 104.141 43.9823C104.379 40.6285 104.791 37.2892 105.374 33.9776C103.239 36.1778 101.205 38.4046 99.0163 40.5142C99.5501 40.1519 100.004 39.7471 100.5 39.3635C100.603 39.251 100.738 39.1725 100.887 39.1382C101.035 39.104 101.191 39.1157 101.333 39.1717C101.456 39.2402 101.555 39.345 101.616 39.4719C101.678 39.5988 101.698 39.7414 101.675 39.8803C101.644 40.4618 101.806 41.0371 102.135 41.5181C102.464 41.9992 102.941 42.3595 103.495 42.5439C103.666 42.6185 103.98 42.6718 103.847 43.0127Z" fill="#BB4128"/>
<path d="M88.3247 85.2636C89.2113 84.9296 90.1211 84.6607 91.047 84.4592C92.0723 84.7008 93.1116 84.8787 94.1589 84.9919C94.3991 85.0345 94.7941 84.912 94.8261 85.189C94.8582 85.4661 94.4258 85.4288 94.2123 85.5673C93.9988 85.7058 93.7052 85.6152 93.5184 85.8283C93.2333 85.8165 92.9496 85.8731 92.691 85.9935L91.2818 86.3611C91.2818 86.2198 91.2256 86.0843 91.1255 85.9844C91.0254 85.8844 90.8896 85.8283 90.7481 85.8283C89.8567 85.9295 89.1094 85.5353 88.3247 85.2636Z" fill="#D5D5D1"/>
<path d="M95.6375 85.1251C97.4029 85.3001 99.1554 85.5866 100.885 85.9828C104.162 86.6008 107.411 87.3413 110.631 88.2043C110.765 88.2416 110.914 88.2309 110.994 88.3748C111.002 88.4267 110.993 88.4796 110.969 88.5263C110.945 88.573 110.907 88.6112 110.861 88.6358C109.97 88.2809 109.048 88.0098 108.107 87.8261C106.692 87.4372 105.251 87.1442 103.836 86.8352C102.646 86.5795 101.434 86.4143 100.255 86.1107C98.7494 85.7218 97.1481 85.6738 95.6375 85.1251Z" fill="#9EAA41"/>
<path d="M18.3087 86.1426C21.2034 85.2076 24.1657 84.4952 27.1694 84.0117C31.0607 83.3351 34.9787 82.8876 38.9126 82.6C41.4641 82.4082 44.0102 82.1951 46.567 82.1685C47.0047 82.1685 47.4424 82.1205 47.8855 82.0939C48.114 83.6006 48.132 85.1317 47.9389 86.6434L47.9068 85.6898C47.6613 85.3862 47.7414 85.0239 47.7307 84.6829C47.7307 84.2355 47.4905 84.0437 47.0581 84.1182C45.9736 84.2567 44.8759 84.2567 43.7914 84.1182C43.2541 84.0543 42.7093 84.0996 42.19 84.2514C41.8553 84.3548 41.5037 84.3927 41.1545 84.3633C39.5086 84.2644 37.857 84.3233 36.2224 84.5391C33.6389 84.8481 31.034 84.8747 28.4612 85.2317C25.5378 85.6323 22.6426 86.2159 19.7926 86.979C19.4456 87.0696 19.1627 87.2773 18.8265 87.3732C18.6045 86.9855 18.4306 86.5723 18.3087 86.1426V86.1426Z" fill="#C7CCBA"/>
<path d="M55.0435 81.8328C58.4436 81.7423 61.8331 81.8914 65.228 82.0459C67.0428 82.1312 68.8577 82.1578 70.6672 82.2164C70.9608 82.2164 71.2757 82.1205 71.5426 82.3389C70.948 82.3424 70.3548 82.3994 69.7705 82.5094C69.0318 82.7062 68.258 82.7335 67.5072 82.5893C66.2582 82.3336 64.9718 82.5147 63.7121 82.3602C63.4824 82.3465 63.2559 82.2999 63.0395 82.2217L55.0862 82.0779C55.0701 81.998 55.0595 81.9181 55.0435 81.8328Z" fill="#ADB162"/>
<path d="M18.8585 87.5171L19.2428 87.9752C19.8426 88.67 20.3143 89.4655 20.636 90.3246C20.792 90.6744 20.9988 90.9993 21.2498 91.2888L21.3299 91.5765C21.2243 91.8079 21.0469 91.9992 20.8238 92.122C20.6007 92.2449 20.3439 92.2927 20.0915 92.2584C18.0418 92.2584 15.9974 92.2584 13.953 92.2584C13.4726 92.2584 12.9976 92.1199 12.5065 92.1092C12.4372 92.1158 12.3674 92.106 12.3026 92.0805C12.2378 92.0551 12.18 92.0149 12.1337 91.963C12.0874 91.9111 12.0541 91.8491 12.0363 91.7819C12.0185 91.7148 12.0169 91.6444 12.0314 91.5765C12.2022 90.9532 12.325 90.266 12.9335 89.9037C14.3565 88.9468 15.8931 88.1702 17.508 87.5917C17.9325 87.3973 18.4151 87.3706 18.8585 87.5171Z" fill="#0A8C45"/>
<path d="M63.0395 82.2217C65.292 82.0726 67.5233 82.4455 69.7705 82.5094C68.5763 82.9833 67.3555 83.3871 66.1141 83.7187C65.0732 83.2446 64.1551 82.5307 63.0395 82.2217Z" fill="#9DA786"/>
<path d="M103.847 43.0127C103.746 42.7676 103.495 42.709 103.287 42.6398C102.027 42.2136 101.573 41.2494 101.498 40.0241C101.498 39.7524 101.594 39.4274 101.274 39.2729C100.954 39.1184 100.74 39.3955 100.495 39.5926C99.9985 40.0081 99.4914 40.413 98.9896 40.8179C98.8882 40.9031 98.7814 41.0736 98.6427 40.9457C98.5039 40.8179 98.6427 40.6474 98.7387 40.5302C98.8348 40.413 98.9683 40.2958 99.0804 40.1786C100.817 38.4028 102.552 36.627 104.285 34.8513C104.637 34.4837 104.963 34.0895 105.304 33.7112C105.379 33.626 105.475 33.5248 105.603 33.5993C105.648 33.6365 105.68 33.6876 105.692 33.7446C105.705 33.8015 105.698 33.8611 105.673 33.9137C105.387 35.0237 105.18 36.1523 105.053 37.2912C104.904 38.5484 104.712 39.8057 104.584 41.0682C104.482 42.1337 104.194 43.1565 104.311 44.3339C103.778 43.9397 104.311 43.3164 103.852 43.0074L103.847 43.0127Z" fill="#D72A27"/>
<path d="M103.473 50.8545C103.473 50.0821 103.415 49.3043 103.473 48.5371C103.559 47.5995 103.724 46.6619 103.73 45.7137C103.73 45.4846 103.73 45.1809 104.034 45.2182C104.242 45.2555 104.071 45.5272 104.034 45.6977C103.964 46.6193 103.911 47.5409 103.836 48.4572C103.738 49.2544 103.688 50.0567 103.687 50.8598L103.473 50.8545Z" fill="#D72A27"/>
<path d="M4.17416 76.4309L4.70794 78.5192L65.196 75.5413L120.757 88.2203L122.401 87.6183L122.69 87.1175L122.23 87.0589C122.23 87.0589 117.192 84.3952 113.781 83.3298C110.37 82.2643 107.722 80.9378 101.365 79.0679C95.0076 77.1981 86.5419 74.7422 79.5547 73.3944C72.5675 72.0465 60.5414 69.8304 56.6021 69.3776C52.6628 68.9247 44.496 68.0617 41.9178 68.131C39.3396 68.2002 21.031 70.214 12.688 73.0321C4.34497 75.8502 4.17416 76.4309 4.17416 76.4309Z" fill="white"/>
<path d="M18.3087 86.1426C18.2647 86.1328 18.2192 86.1328 18.1752 86.1426C15.7625 86.8938 13.4566 87.842 11.7325 89.7865C10.7984 90.852 10.7023 92.2317 10.3126 93.5156C10.2219 93.8956 10.1612 94.2822 10.1312 94.6717C10.0521 94.7415 9.95201 94.7831 9.84665 94.7899C9.74129 94.7966 9.63668 94.7681 9.54934 94.7089C6.34665 92.9776 3.25072 91.0757 1.16898 87.9379C0.795333 87.3732 0.571145 86.7499 0.256215 86.1639C-0.635199 83.0208 0.870063 80.6928 3.52295 78.743C6.61888 76.4682 10.1792 75.1631 13.7982 74.0017C17.3265 72.8776 20.9295 72.0679 24.5486 71.3007C28.3513 70.4881 32.2223 70.0351 36.1103 69.9476C41.3962 69.865 46.6824 70.0891 51.9422 70.6189C56.6448 71.061 61.3314 71.6577 65.9966 72.3822C70.4324 73.0747 74.8521 73.8845 79.2504 74.7742C83.9957 75.7331 88.7144 76.7879 93.4009 77.9705C97.8794 79.1106 102.331 80.3518 106.745 81.7423C111.704 83.2603 116.574 85.0512 121.334 87.1069C122.111 87.4224 122.822 87.8795 123.431 88.4547C124.472 89.5201 124.558 90.4151 123.73 91.6138C123.052 92.3916 122.834 92.4661 121.889 92.1465C121.467 91.992 120.987 91.9494 120.682 91.5658C120.682 91.3155 120.458 91.2888 120.298 91.2302C117.368 90.1648 114.368 89.2751 111.357 88.4281C111.244 88.4147 111.129 88.4147 111.016 88.4281C110.255 88.3462 109.506 88.1763 108.785 87.9219C107.359 87.5117 105.907 87.2294 104.472 86.8938C102.336 86.393 100.169 85.9935 98.0128 85.5886C97.2228 85.4394 96.4115 85.3169 95.6375 85.1784C94.4258 84.7788 93.1447 84.7629 91.901 84.5125C91.6537 84.4706 91.4042 84.4421 91.1537 84.4272C87.5721 83.8519 83.969 83.4364 80.3607 83.1114C77.4196 82.845 74.4891 82.6319 71.532 82.3922C71.3349 82.3153 71.1194 82.2987 70.9128 82.3443C69.3359 82.4553 67.7527 82.441 66.1781 82.3016C62.5965 82.1685 59.0201 81.982 55.4385 81.9873C55.2968 81.9886 55.1572 81.9537 55.0328 81.8861C52.7856 81.7742 50.5437 81.9447 48.2965 81.9767C48.2159 81.972 48.1353 81.987 48.0618 82.0204C47.9884 82.0539 47.9241 82.1047 47.8748 82.1685C47.4462 82.4084 46.9552 82.5142 46.4656 82.4721C41.7265 82.5846 36.9963 82.9402 32.2937 83.5376C27.7776 84.0305 23.3128 84.9128 18.9492 86.1746C18.8463 86.2149 18.7359 86.2329 18.6255 86.2274C18.5151 86.2219 18.4071 86.193 18.3087 86.1426V86.1426Z" fill="#FBED26"/>
<path d="M127.574 69.042L127.104 72.0412C127.104 72.0412 120.165 76.09 115.644 78.0664C113.909 78.8176 107.45 81.0284 107.45 81.0284L104.333 79.9629C104.333 79.9629 121.328 73.3784 127.574 69.042Z" fill="white"/>
</g>
<defs>
<linearGradient id="paint0_linear_2:2" x1="11.7272" y1="61.5784" x2="118.83" y2="61.5784" gradientUnits="userSpaceOnUse">
<stop stop-color="#FAFCF8"/>
<stop offset="1" stop-color="#BEDB88"/>
</linearGradient>
<clipPath id="clip0_2:2">
<rect width="140" height="125" fill="white"/>
</clipPath>
</defs>
</svg>
