<svg width="30" height="38" viewBox="0 0 27 35" fill="none" xmlns="http://www.w3.org/2000/svg">
<g filter="url(#filter0_d_14923_71)">
<path d="M11 1C5.82233 1 1 4.6 1 10C1 15.4 3.05357 15.4 6.625 21.4C10.1964 27.4 11 34 11 34C11 34 11.8036 27.4 15.375 21.4C18.9464 15.4 21 15.4 21 10C21 4.6 16.1777 1 11 1Z" fill="#EA4335"/>
<g filter="url(#filter1_d_14923_71)">
<path d="M15 10C15 12.2091 13.2091 14 11 14C8.79086 14 7 12.2091 7 10C7 7.79086 8.79086 6 11 6C13.2091 6 15 7.79086 15 10Z" fill="#A60D0D"/>
</g>
</g>
<defs>
<filter id="filter0_d_14923_71" x="0" y="0" width="28" height="35" filterUnits="userSpaceOnUse" color-interpolation-filters="sRGB">
<feFlood flood-opacity="0" result="BackgroundImageFix"/>
<feColorMatrix in="SourceAlpha" type="matrix" values="0 0 0 0 0 0 0 0 0 0 0 0 0 0 0 0 0 0 127 0" result="hardAlpha"/>
<feOffset/>
<feGaussianBlur stdDeviation="0.5"/>
<feComposite in2="hardAlpha" operator="out"/>
<feColorMatrix type="matrix" values="0 0 0 0 0 0 0 0 0 0 0 0 0 0 0 0 0 0 0.42 0"/>
<feBlend mode="normal" in2="BackgroundImageFix" result="effect1_dropShadow_14923_71"/>
<feBlend mode="normal" in="SourceGraphic" in2="effect1_dropShadow_14923_71" result="shape"/>
</filter>
<filter id="filter1_d_14923_71" x="6" y="5" width="10" height="10" filterUnits="userSpaceOnUse" color-interpolation-filters="sRGB">
<feFlood flood-opacity="0" result="BackgroundImageFix"/>
<feColorMatrix in="SourceAlpha" type="matrix" values="0 0 0 0 0 0 0 0 0 0 0 0 0 0 0 0 0 0 127 0" result="hardAlpha"/>
<feOffset/>
<feGaussianBlur stdDeviation="0.5"/>
<feComposite in2="hardAlpha" operator="out"/>
<feColorMatrix type="matrix" values="0 0 0 0 0 0 0 0 0 0 0 0 0 0 0 0 0 0 0.31 0"/>
<feBlend mode="normal" in2="BackgroundImageFix" result="effect1_dropShadow_14923_71"/>
<feBlend mode="normal" in="SourceGraphic" in2="effect1_dropShadow_14923_71" result="shape"/>
</filter>
</defs>
</svg>
