
<svg width="40" height="40" viewBox="0 0 40 40" fill="none" xmlns="http://www.w3.org/2000/svg">
<path fill-rule="evenodd" clip-rule="evenodd" d="M8.33331 15C8.33331 8.54998 13.55 3.33331 20 3.33331C26.45 3.33331 31.6666 8.54998 31.6666 15C31.6666 23.75 20 36.6666 20 36.6666C20 36.6666 8.33331 23.75 8.33331 15ZM15.8333 15C15.8333 12.6988 17.6988 10.8333 20 10.8333C21.4886 10.8333 22.8641 11.6275 23.6084 12.9166C24.3527 14.2058 24.3527 15.7941 23.6084 17.0833C22.8641 18.3725 21.4886 19.1666 20 19.1666C17.6988 19.1666 15.8333 17.3012 15.8333 15Z" fill="#EB5757"/>
<circle cx="20" cy="15.7894" r="9.47368" fill="#440000"/>
</svg>
