<svg width="55" height="79" viewBox="0 0 55 79" fill="none" xmlns="http://www.w3.org/2000/svg">
<path d="M55 27.3833C55 12.8399 42.0337 0 27.5 0C12.9663 0 -3.27025e-05 12.8399 -3.27025e-05 27.3834C-3.27025e-05 34.8094 2.80265 44.6548 8.80228 55.3C15.8722 67.8443 27.5 78.9999 27.5 78.9999C27.5 78.9999 39.1278 67.8442 46.1977 55.2999C52.1973 44.6547 55 34.8093 55 27.3833Z" fill="#5BAA00"/>
<path d="M47.5 26C47.5 36.7696 38.7696 45.5 28 45.5C17.2304 45.5 8.5 36.7696 8.5 26C8.5 15.2304 17.2304 6.5 28 6.5C38.7696 6.5 47.5 15.2304 47.5 26Z" fill="#203C00" stroke="#20320C"/>
</svg>
